# Made in Blockbench 5.1.6
mtllib mekasuit_modules.mtl

o infinityelytra_right_wing_base
v 0.4834388621042589 1.516154130431255 0.021079165778412387
v 0.3652670410366926 1.5140914336218347 0.06177518508555717
v 0.3924965000987385 1.602968537270143 0.14534800965357242
v 0.5106683211663048 1.6050312340795632 0.10465199034642762
v 0.5137534999012615 1.428281462729857 0.1046519903464276
v 0.5409829589633074 1.5171585663781653 0.18822481491444282
v 0.3955816788336952 1.4262187659204368 0.14534800965357236
v 0.4228111378957411 1.515095869568745 0.2289208342215876
vt 0.0625 0.75
vt 0.125 0.75
vt 0.125 0.8125
vt 0.0625 0.8125
vt 0.0625 0.75
vt 0.125 0.75
vt 0.125 0.8125
vt 0.0625 0.8125
vt 0.0625 0.75
vt 0.125 0.75
vt 0.125 0.8125
vt 0.0625 0.8125
vt 0.0625 0.75
vt 0.125 0.75
vt 0.125 0.8125
vt 0.0625 0.8125
vt 0.0625 0.75
vt 0.125 0.75
vt 0.125 0.8125
vt 0.0625 0.8125
vt 0.0625 0.75
vt 0.125 0.75
vt 0.125 0.8125
vt 0.0625 0.8125
vn -0.24251710237602153 0.7029813416111828 -0.6685825965441219
vn 0.9453745685405306 0.016501574475360676 -0.32556815445715825
vn 0.24251710237602148 -0.7029813416111826 0.668582596544122
vn -0.9453745685405305 -0.016501574475360655 0.32556815445715825
vn 0.2178356724963667 0.7110168291864652 0.6685825965441222
vn -0.21783567249636673 -0.7110168291864654 -0.6685825965441222
usemtl 3
f 1/1/1 2/2/1 3/3/1 4/4/1
f 5/5/2 1/6/2 4/7/2 6/8/2
f 7/9/3 5/10/3 6/11/3 8/12/3
f 2/13/4 7/14/4 8/15/4 3/16/4
f 8/17/5 6/18/5 4/19/5 3/20/5
f 2/21/6 1/22/6 5/23/6 7/24/6
o infinityelytra_right_wing_energy_channel_led1
v 0.48491469562403855 1.5935314764145332 0.12527259824421572
v 0.4258287850902554 1.5925001280098232 0.1456206078977881
v 0.49390243274537016 1.8146928871305936 0.3545526693178262
v 0.5529883432791532 1.8157242355353038 0.33420465966425383
v 0.5152293334210412 1.5056588087131355 0.20884542281223092
v 0.5833029810761559 1.727851567833906 0.417777484232269
v 0.456143422887258 1.5046274603084253 0.22919343246580332
v 0.5242170705423728 1.7268202194291957 0.43812549388584143
vt 0 0.78125
vt 0.03125 0.78125
vt 0.03125 0.9375
vt 0 0.9375
vt 0 0.78125
vt 0.0625 0.78125
vt 0.0625 0.9375
vt 0 0.9375
vt 0 0.78125
vt 0.03125 0.78125
vt 0.03125 0.9375
vt 0 0.9375
vt 0 0.78125
vt 0.0625 0.78125
vt 0.0625 0.9375
vt 0 0.9375
vt 0 0.875
vt 0.03125 0.875
vt 0.03125 0.9375
vt 0 0.9375
vt 0.0625 0.8125
vt 0.0625 0.78125
vt 0 0.78125
vt 0 0.8125
vn -0.2425171023760202 0.7029813416111831 -0.6685825965441219
vn 0.9453745685405305 0.016501574475360704 -0.3255681544571582
vn 0.2425171023760226 -0.7029813416111831 0.6685825965441211
vn -0.9453745685405304 -0.01650157447536058 0.3255681544571583
vn 0.217835672496366 0.7110168291864651 0.6685825965441227
vn -0.2178356724963676 -0.7110168291864662 -0.6685825965441209
usemtl 3
f 9/25/7 10/26/7 11/27/7 12/28/7
f 13/29/8 9/30/8 12/31/8 14/32/8
f 15/33/9 13/34/9 14/35/9 16/36/9
f 10/37/10 15/38/10 16/39/10 11/40/10
f 16/41/11 14/42/11 12/43/11 11/44/11
f 10/45/12 9/46/12 13/47/12 15/48/12
o infinityelytra_right_wing_arm1
v 0.5258256400648061 1.561094900228864 0.14643840263043523
v 0.4076538189972398 1.5590322034194442 0.18713442193758
v 0.47572746665235455 1.7812249625402146 0.39606648335761807
v 0.5938992877199208 1.7832876593496345 0.35537046405047334
v 0.5409829589633074 1.5171585663781653 0.18822481491444282
v 0.6090566066184222 1.7393513254989357 0.39715687633448093
v 0.4228111378957411 1.515095869568745 0.2289208342215876
v 0.49088478555085585 1.7372886286895155 0.43785289564162566
vt 0.84375 0.515625
vt 0.96875 0.515625
vt 0.96875 0.828125
vt 0.84375 0.828125
vt 0.84375 0.515625
vt 0.90625 0.515625
vt 0.90625 0.828125
vt 0.84375 0.828125
vt 0.84375 0.515625
vt 0.96875 0.515625
vt 0.96875 0.828125
vt 0.84375 0.828125
vt 0.84375 0.515625
vt 0.90625 0.515625
vt 0.90625 0.828125
vt 0.84375 0.828125
vt 0.84375 0.765625
vt 0.96875 0.765625
vt 0.96875 0.828125
vt 0.84375 0.828125
vt 0.84375 0.765625
vt 0.96875 0.765625
vt 0.96875 0.828125
vt 0.84375 0.828125
vn -0.24251710237602012 0.702981341611183 -0.668582596544122
vn 0.9453745685405308 0.01650157447536019 -0.3255681544571577
vn 0.24251710237602142 -0.7029813416111832 0.6685825965441214
vn -0.9453745685405305 -0.016501574475360586 0.32556815445715837
vn 0.21783567249636598 0.7110168291864662 0.6685825965441214
vn -0.21783567249636762 -0.711016829186466 -0.6685825965441212
usemtl 3
f 17/49/13 18/50/13 19/51/13 20/52/13
f 21/53/14 17/54/14 20/55/14 22/56/14
f 23/57/15 21/58/15 22/59/15 24/60/15
f 18/61/16 23/62/16 24/63/16 19/64/16
f 24/65/17 22/66/17 20/67/17 19/68/17
f 18/69/18 17/70/18 21/71/18 23/72/18
o infinityelytra_right_wing_energy_cover1
v 0.5106683211663048 1.6050312340795632 0.10465199034642762
v 0.3924965000987385 1.602968537270143 0.14534800965357242
v 0.41972595916078437 1.6918456409184512 0.22892083422158765
v 0.5378977802283507 1.6939083377278712 0.18822481491444287
v 0.5258256400648061 1.561094900228864 0.14643840263043523
v 0.553055099126852 1.6499720038771724 0.23001122719845046
v 0.4076538189972398 1.5590322034194442 0.18713442193758
v 0.43488327805928567 1.6479093070677522 0.27070724650559524
vt 0 0.9375
vt 0.0625 0.9375
vt 0.0625 1
vt 0 1
vt 0 0.9375
vt 0.03125 0.9375
vt 0.03125 1
vt 0 1
vt 0 0.9375
vt 0.0625 0.9375
vt 0.0625 1
vt 0 1
vt 0 0.9375
vt 0.03125 0.9375
vt 0.03125 1
vt 0 1
vt 0 0.96875
vt 0.0625 0.96875
vt 0.0625 1
vt 0 1
vt 0 0.96875
vt 0.0625 0.96875
vt 0.0625 1
vt 0 1
vn -0.24251710237602161 0.7029813416111828 -0.6685825965441219
vn 0.9453745685405303 0.016501574475361287 -0.3255681544571587
vn 0.24251710237602025 -0.7029813416111828 0.6685825965441223
vn -0.9453745685405305 -0.01650157447536078 0.32556815445715825
vn 0.21783567249636626 0.7110168291864662 0.6685825965441213
vn -0.21783567249636704 -0.7110168291864645 -0.668582596544123
usemtl 3
f 25/73/19 26/74/19 27/75/19 28/76/19
f 29/77/20 25/78/20 28/79/20 30/80/20
f 31/81/21 29/82/21 30/83/21 32/84/21
f 26/85/22 31/86/22 32/87/22 27/88/22
f 32/89/23 30/90/23 28/91/23 27/92/23
f 26/93/24 25/94/24 29/95/24 31/96/24
o infinityelytra_right_wing_energy_channel_led2
v 0.5706650963853841 1.8335560836599645 0.38643767501926335
v 0.5115791858516009 1.8325247352552543 0.40678568467283577
v 0.6743384702767558 1.8353657091325655 0.879544972472494
v 0.733424380810539 1.8363970575372754 0.8591969628189216
v 0.5728466471900445 1.7085751217654155 0.3864376750192633
v 0.7356059316151993 1.7114160956427265 0.8591969628189214
v 0.5137607366562613 1.7075437733607055 0.4067856846728357
v 0.6765200210814162 1.7103847472380165 0.8795449724724939
vt 0 0.53125
vt 0.03125 0.53125
vt 0.03125 0.78125
vt 0 0.78125
vt 0 0.53125
vt 0.0625 0.53125
vt 0.0625 0.78125
vt 0 0.78125
vt 0 0.53125
vt 0.03125 0.53125
vt 0.03125 0.78125
vt 0 0.78125
vt 0 0.53125
vt 0.0625 0.53125
vt 0.0625 0.78125
vt 0 0.78125
vt 0 0.71875
vt 0.03125 0.71875
vt 0.03125 0.78125
vt 0 0.78125
vt 0 0.71875
vt 0.03125 0.71875
vt 0.03125 0.78125
vt 0 0.78125
vn -0.017452406437285795 0.9998476951563913 1.0377983195031237e-15
vn 0.9453745685405304 0.01650157447536068 -0.32556815445715825
vn 0.017452406437282294 -0.9998476951563913 -2.9750507613002217e-16
vn -0.9453745685405305 -0.016501574475360707 0.3255681544571583
vn 0.3255185688503104 0.00568194775462147 0.9455185755993161
vn -0.3255185688503098 -0.005681947754622181 -0.9455185755993162
usemtl 3
f 33/97/25 34/98/25 35/99/25 36/100/25
f 37/101/26 33/102/26 36/103/26 38/104/26
f 39/105/27 37/106/27 38/107/27 40/108/27
f 34/109/28 39/110/28 40/111/28 35/112/28
f 40/113/29 38/114/29 36/115/29 35/116/29
f 34/117/30 33/118/30 37/119/30 39/120/30
o infinityelytra_right_wing_arm2
v 0.580681222650879 1.7868487754171998 0.31716875921751986
v 0.46250940158331266 1.7847860786077796 0.35786477852466464
v 0.6659585071147562 1.7883372959544186 0.9488138882742374
v 0.7841303281823225 1.7903999927638385 0.9081178689670926
v 0.5817719980532092 1.7243582944699252 0.31716875921751986
v 0.7852211035846527 1.7279095118165642 0.9081178689670926
v 0.4636001769856429 1.7222955976605052 0.35786477852466464
v 0.6670492825170864 1.725846815007144 0.9488138882742374
vt 0.71875 0.375
vt 0.84375 0.375
vt 0.84375 1
vt 0.71875 1
vt 0.71875 0.375
vt 0.78125 0.375
vt 0.78125 1
vt 0.71875 1
vt 0.71875 0.375
vt 0.84375 0.375
vt 0.84375 1
vt 0.71875 1
vt 0.71875 0.375
vt 0.78125 0.375
vt 0.78125 1
vt 0.71875 1
vt 0.71875 0.9375
vt 0.84375 0.9375
vt 0.84375 1
vt 0.71875 1
vt 0.71875 0.9375
vt 0.84375 0.9375
vt 0.84375 1
vt 0.71875 1
vn -0.017452406437284136 0.9998476951563913 4.642120021713936e-16
vn 0.9453745685405305 0.016501574475361346 -0.3255681544571583
vn 0.017452406437282443 -0.9998476951563913 1.1934897514720427e-16
vn -0.9453745685405305 -0.016501574475360565 0.3255681544571582
vn 0.3255185688503101 0.00568194775462228 0.9455185755993162
vn -0.3255185688503097 -0.005681947754622926 -0.9455185755993163
usemtl 3
f 41/121/31 42/122/31 43/123/31 44/124/31
f 45/125/32 41/126/32 44/127/32 46/128/32
f 47/129/33 45/130/33 46/131/33 48/132/33
f 42/133/34 47/134/34 48/135/34 43/136/34
f 48/137/35 46/138/35 44/139/35 43/140/35
f 42/141/36 41/142/36 45/143/36 47/144/36
o infinityelytra_right_wing_energy_cover2
v 0.5795904472485488 1.8493392563644742 0.3171687592175199
v 0.46141862618098245 1.847276559555054 0.3578647785246647
v 0.5021084472872711 1.8479868030243818 0.4760546004745792
v 0.6202802683548374 1.850049499833802 0.4353585811674344
v 0.580681222650879 1.7868487754171998 0.31716875921751986
v 0.6213710437571677 1.7875590188865274 0.4353585811674344
v 0.46250940158331266 1.7847860786077796 0.35786477852466464
v 0.5031992226896014 1.7854963220771074 0.4760546004745792
vt 0 0.9375
vt 0.0625 0.9375
vt 0.0625 1
vt 0 1
vt 0 0.9375
vt 0.03125 0.9375
vt 0.03125 1
vt 0 1
vt 0 0.9375
vt 0.0625 0.9375
vt 0.0625 1
vt 0 1
vt 0 0.9375
vt 0.03125 0.9375
vt 0.03125 1
vt 0 1
vt 0 0.96875
vt 0.0625 0.96875
vt 0.0625 1
vt 0 1
vt 0 0.96875
vt 0.0625 0.96875
vt 0.0625 1
vt 0 1
vn -0.017452406437284126 0.9998476951563913 4.544975507059235e-16
vn 0.9453745685405307 0.016501574475360017 -0.3255681544571576
vn 0.017452406437283553 -0.9998476951563913 -2.144118216307333e-15
vn -0.9453745685405305 -0.016501574475360853 0.32556815445715825
vn 0.3255185688503097 0.005681947754622816 0.9455185755993164
vn -0.32551856885030955 -0.0056819477546215 -0.9455185755993163
usemtl 3
f 49/145/37 50/146/37 51/147/37 52/148/37
f 53/149/38 49/150/38 52/151/38 54/152/38
f 55/153/39 53/154/39 54/155/39 56/156/39
f 50/157/40 55/158/40 56/159/40 51/160/40
f 56/161/41 54/162/41 52/163/41 51/164/41
f 50/165/42 49/166/42 53/167/42 55/168/42
o infinityelytra_right_wing_energy_cover3
v 0.6406251789079818 1.8504046215684657 0.4944534921423917
v 0.5224533578404155 1.8483419247590458 0.5351495114495365
v 0.5427982683935598 1.8486970464937096 0.5942444224244937
v 0.6609700894611261 1.8507597433031298 0.553548403117349
v 0.641715954310312 1.7879141406211914 0.49445349214239165
v 0.6620608648634564 1.7882692623558551 0.553548403117349
v 0.5235441332427457 1.7858514438117712 0.5351495114495365
v 0.5438890437958901 1.7862065655464352 0.5942444224244937
vt 0 0.96875
vt 0.0625 0.96875
vt 0.0625 1
vt 0 1
vt 0 0.96875
vt 0.03125 0.96875
vt 0.03125 1
vt 0 1
vt 0 0.96875
vt 0.0625 0.96875
vt 0.0625 1
vt 0 1
vt 0 0.96875
vt 0.03125 0.96875
vt 0.03125 1
vt 0 1
vt 0 0.96875
vt 0.0625 0.96875
vt 0.0625 1
vt 0 1
vt 0 0.96875
vt 0.0625 0.96875
vt 0.0625 1
vt 0 1
vn -0.01745240643728187 0.9998476951563913 1.5681900222830346e-15
vn 0.9453745685405305 0.016501574475361692 -0.3255681544571583
vn 0.017452406437283553 -0.9998476951563913 -2.1441182163073312e-15
vn -0.9453745685405303 -0.016501574475361342 0.32556815445715853
vn 0.3255185688503093 0.005681947754622927 0.9455185755993164
vn -0.3255185688503098 -0.005681947754622059 -0.9455185755993164
usemtl 3
f 57/169/43 58/170/43 59/171/43 60/172/43
f 61/173/44 57/174/44 60/175/44 62/176/44
f 63/177/45 61/178/45 62/179/45 64/180/45
f 58/181/46 63/182/46 64/183/46 59/184/46
f 64/185/47 62/186/47 60/187/47 59/188/47
f 58/189/48 57/190/48 61/191/48 63/192/48
o infinityelytra_right_wing_energy_cover5
v 0.7423497316737036 1.8521802302417851 0.7899280470171781
v 0.6241779106061373 1.8501175334323652 0.8306240663243227
v 0.664867731712426 1.850827776901693 0.9488138882742374
v 0.7830395527799923 1.852890473711113 0.9081178689670926
v 0.7434405070760338 1.7896897492945107 0.7899280470171781
v 0.7841303281823225 1.7903999927638385 0.9081178689670926
v 0.6252686860084675 1.7876270524850908 0.8306240663243227
v 0.6659585071147562 1.7883372959544186 0.9488138882742374
vt 0 0.9375
vt 0.0625 0.9375
vt 0.0625 1
vt 0 1
vt 0 0.9375
vt 0.03125 0.9375
vt 0.03125 1
vt 0 1
vt 0 0.9375
vt 0.0625 0.9375
vt 0.0625 1
vt 0 1
vt 0 0.9375
vt 0.03125 0.9375
vt 0.03125 1
vt 0 1
vt 0 0.96875
vt 0.0625 0.96875
vt 0.0625 1
vt 0 1
vt 0 0.96875
vt 0.0625 0.96875
vt 0.0625 1
vt 0 1
vn -0.017452406437282457 0.9998476951563913 -1.1449174941446922e-16
vn 0.9453745685405304 0.0165015744753614 -0.32556815445715853
vn 0.017452406437282453 -0.9998476951563913 1.144917494144694e-16
vn -0.9453745685405306 -0.016501574475361405 0.325568154457158
vn 0.3255185688503101 0.005681947754622946 0.9455185755993162
vn -0.32551856885030844 -0.005681947754622838 -0.9455185755993166
usemtl 3
f 65/193/49 66/194/49 67/195/49 68/196/49
f 69/197/50 65/198/50 68/199/50 70/200/50
f 71/201/51 69/202/51 70/203/51 72/204/51
f 66/205/52 71/206/52 72/207/52 67/208/52
f 72/209/53 70/210/53 68/211/53 67/212/53
f 66/213/54 65/214/54 69/215/54 71/216/54
o infinityelytra_right_wing_energy_cover4
v 0.7016599105674148 1.8514699867724576 0.6717382250672636
v 0.5834880894998485 1.8494072899630374 0.7124342443744083
v 0.6038330000529929 1.8497624116977012 0.7715291553493655
v 0.7220048211205592 1.8518251085071213 0.7308331360422208
v 0.7027506859697451 1.788979505825183 0.6717382250672636
v 0.7230955965228895 1.789334627559847 0.7308331360422208
v 0.5845788649021788 1.786916809015763 0.7124342443744083
v 0.6049237754553232 1.7872719307504268 0.7715291553493655
vt 0 0.96875
vt 0.0625 0.96875
vt 0.0625 1
vt 0 1
vt 0 0.96875
vt 0.03125 0.96875
vt 0.03125 1
vt 0 1
vt 0 0.96875
vt 0.0625 0.96875
vt 0.0625 1
vt 0 1
vt 0 0.96875
vt 0.03125 0.96875
vt 0.03125 1
vt 0 1
vt 0 0.96875
vt 0.0625 0.96875
vt 0.0625 1
vt 0 1
vt 0 0.96875
vt 0.0625 0.96875
vt 0.0625 1
vt 0 1
vn -0.017452406437283553 0.9998476951563913 2.1441182163073355e-15
vn 0.9453745685405303 0.016501574475361342 -0.3255681544571585
vn 0.017452406437283033 -0.9998476951563913 1.7971735211119737e-15
vn -0.9453745685405304 -0.0165015744753614 0.3255681544571585
vn 0.3255185688503093 0.005681947754622948 0.9455185755993164
vn -0.32551856885030933 -0.005681947754622816 -0.9455185755993165
usemtl 3
f 73/217/55 74/218/55 75/219/55 76/220/55
f 77/221/56 73/222/56 76/223/56 78/224/56
f 79/225/57 77/226/57 78/227/57 80/228/57
f 74/229/58 79/230/58 80/231/58 75/232/58
f 80/233/59 78/234/59 76/235/59 75/236/59
f 74/237/60 73/238/60 77/239/60 79/240/60
o infinityelytra_right_wing_arm3
v 0.7710445963598377 1.7863797422136731 0.869916164134139
v 0.6528727752922714 1.784317045404253 0.9106121834412837
v 0.7438166886832792 1.5206990423000595 1.1613306571453295
v 0.8619885097508455 1.5227617391094797 1.1206346378381846
v 0.7574298668288147 1.741941190389519 0.8281297518501313
v 0.8483737802198226 1.4783231872853255 1.078848225554177
v 0.6392580457612485 1.7398784935800988 0.868825771157276
v 0.7302019591522563 1.4762604904759054 1.1195442448613218
vt 0.84375 0.140625
vt 0.96875 0.140625
vt 0.96875 0.515625
vt 0.84375 0.515625
vt 0.84375 0.140625
vt 0.90625 0.140625
vt 0.90625 0.515625
vt 0.84375 0.515625
vt 0.84375 0.140625
vt 0.96875 0.140625
vt 0.96875 0.515625
vt 0.84375 0.515625
vt 0.84375 0.140625
vt 0.90625 0.140625
vt 0.90625 0.515625
vt 0.84375 0.515625
vt 0.84375 0.4531249999999999
vt 0.96875 0.4531249999999999
vt 0.96875 0.515625
vt 0.84375 0.515625
vt 0.84375 0.4531249999999999
vt 0.96875 0.4531249999999999
vt 0.96875 0.515625
vt 0.84375 0.515625
vn 0.21783567249636626 0.7110168291864658 0.668582596544122
vn 0.9453745685405306 0.016501574475360957 -0.32556815445715787
vn -0.21783567249636634 -0.7110168291864657 -0.668582596544122
vn -0.9453745685405306 -0.016501574475360898 0.3255681544571578
vn 0.2425171023760216 -0.7029813416111834 0.6685825965441211
vn -0.24251710237602106 0.7029813416111834 -0.6685825965441213
usemtl 3
f 81/241/61 82/242/61 83/243/61 84/244/61
f 85/245/62 81/246/62 84/247/62 86/248/62
f 87/249/63 85/250/63 86/251/63 88/252/63
f 82/253/64 87/254/64 88/255/64 83/256/64
f 88/257/65 86/258/65 84/259/65 83/260/65
f 82/261/66 81/262/66 85/263/66 87/264/66
o infinityelytra_right_wing_energy_channel_led3
v 0.7331516869599563 1.852019677774094 0.8591969628189213
v 0.6740657764261732 1.850988329369384 0.8795449724724937
v 0.7346950520201784 1.6752429939665883 1.046690621608524
v 0.7937809625539615 1.6762743423712985 1.026342611954952
v 0.7195369574289333 1.80758112594994 0.8174105505349136
v 0.7801662330229385 1.6318357905471441 0.9845561996709442
v 0.6604510468951501 1.80654977754523 0.837758560188486
v 0.7210803224891553 1.6308044421424341 1.0049042093245166
vt 0 0.875
vt 0.03125 0.875
vt 0.03125 0.9375
vt 0 0.9375
vt 0 0.875
vt 0.031250000000000056 0.875
vt 0.031250000000000056 0.9375
vt 0 0.9375
vt 0 0.875
vt 0.03125 0.875
vt 0.03125 1
vt 0 1
vt 0 0.875
vt 0.031250000000000056 0.875
vt 0.031250000000000056 0.9375
vt 0 0.9375
vt 0 0.96875
vt 0.03125 0.96875
vt 0.03125 1
vt 0 1
vt 0 0.96875
vt 0.03125 0.96875
vt 0.03125 1
vt 0 1
vn 0.21783567249636837 0.7110168291864652 0.6685825965441218
vn 0.9453745685405307 0.016501574475360836 -0.32556815445715775
vn -0.21783567249636793 -0.7110168291864657 -0.6685825965441216
vn -0.9453745685405303 -0.016501574475359635 0.32556815445715886
vn 0.24251710237602075 -0.7029813416111815 0.6685825965441233
vn -0.24251710237602064 0.7029813416111833 -0.6685825965441214
usemtl 3
f 89/265/67 90/266/67 91/267/67 92/268/67
f 93/269/68 89/270/68 92/271/68 94/272/68
f 95/273/69 93/274/69 94/275/69 96/276/69
f 90/277/70 95/278/70 96/279/70 91/280/70
f 96/281/71 94/282/71 92/283/71 91/284/71
f 90/285/72 89/286/72 93/287/72 95/288/72
o infinityelytra_right_wing_energy_mesh_led1
v 0.6434053896573716 1.879183739121147 0.695957356667076
v 0.6434053896573716 1.879183739121147 0.695957356667076
v 0.8859224920333924 1.176202397509964 1.3645399532111977
v 0.8859224920333924 1.176202397509964 1.3645399532111977
v 0.6025612010643027 1.7458680836486846 0.5705981198150532
v 0.8450783034403235 1.0428867420375019 1.2391807163591748
v 0.6025612010643027 1.7458680836486846 0.5705981198150532
v 0.8450783034403235 1.0428867420375019 1.2391807163591748
vt 0.15625 0.8125
vt 0.21875 0.8125
vt 0.21875 1
vt 0.15625 1
vt 0.71875 0
vt 0.53125 0
vt 0.53125 1
vt 0.71875 1
vt 0.15625 0.8125
vt 0.21875 0.8125
vt 0.21875 1
vt 0.15625 1
vt 0.53125 0
vt 0.71875 0
vt 0.71875 1
vt 0.53125 1
vt 0.15625 0.96875
vt 0.21875 0.96875
vt 0.21875 1
vt 0.15625 1
vt 0.15625 0.96875
vt 0.21875 0.96875
vt 0.21875 1
vt 0.15625 1
vn 0 0 0
vn 0.9453745685405305 0.016501574475360225 -0.3255681544571584
vn 0 0 0
vn -0.9453745685405305 -0.016501574475360322 0.3255681544571586
vn 0 0 0
vn 0 0 0
usemtl 3
f 97/289/73 98/290/73 99/291/73 100/292/73
f 101/293/74 97/294/74 100/295/74 102/296/74
f 103/297/75 101/298/75 102/299/75 104/300/75
f 98/301/76 103/302/76 104/303/76 99/304/76
f 104/305/77 102/306/77 100/307/77 99/308/77
f 98/309/78 97/310/78 101/311/78 103/312/78
o infinityelytra_right_wing_energy_mesh_led2
v 0.5736214649592165 1.7961939803876061 0.4891146158612384
v 0.5736214649592165 1.7961939803876061 0.4891146158612384
v 0.7858239295382348 1.1810853064778213 1.074124387837345
v 0.7858239295382348 1.1810853064778213 1.074124387837345
v 0.5463920058971706 1.7073168767392979 0.4055417912932231
v 0.7585944704761889 1.092208202829513 0.9905515632693297
v 0.5463920058971706 1.7073168767392979 0.4055417912932231
v 0.7585944704761889 1.092208202829513 0.9905515632693297
vt 0.15625 0.8125
vt 0.21875 0.8125
vt 0.21875 1
vt 0.15625 1
vt 0.53125 0.125
vt 0.40625 0.125
vt 0.40625 1
vt 0.53125 1
vt 0.15625 0.8125
vt 0.21875 0.8125
vt 0.21875 1
vt 0.15625 1
vt 0.40625 0.125
vt 0.53125 0.125
vt 0.53125 1
vt 0.40625 1
vt 0.15625 0.96875
vt 0.21875 0.96875
vt 0.21875 1
vt 0.15625 1
vt 0.15625 0.96875
vt 0.21875 0.96875
vt 0.21875 1
vt 0.15625 1
vn 0 0 0
vn 0.9453745685405306 0.01650157447536074 -0.3255681544571581
vn 0 0 0
vn -0.9453745685405306 -0.016501574475360756 0.3255681544571581
vn 0 0 0
vn 0 0 0
usemtl 3
f 105/313/79 106/314/79 107/315/79 108/316/79
f 109/317/80 105/318/80 108/319/80 110/320/80
f 111/321/81 109/322/81 110/323/81 112/324/81
f 106/325/82 111/326/82 112/327/82 107/328/82
f 112/329/83 110/330/83 108/331/83 107/332/83
f 106/333/84 105/334/84 109/335/84 111/336/84
o infinityelytra_right_wing_energy_mesh_led3
v 0.5333674546355109 1.7115096229349853 0.36793402023761657
v 0.5333674546355109 1.7115096229349853 0.36793402023761657
v 0.6849406436205239 1.272146284427996 0.7857981430776927
v 0.6849406436205239 1.272146284427996 0.7857981430776927
v 0.5061379955734651 1.6226325192866773 0.2843611956696014
v 0.657711184558478 1.183269180779688 0.7022253185096775
v 0.5061379955734651 1.6226325192866773 0.2843611956696014
v 0.657711184558478 1.183269180779688 0.7022253185096775
vt 0.15625 0.8125
vt 0.21875 0.8125
vt 0.21875 1
vt 0.15625 1
vt 0.40625 0.375
vt 0.28125 0.375
vt 0.28125 1
vt 0.40625 1
vt 0.15625 0.8125
vt 0.21875 0.8125
vt 0.21875 1
vt 0.15625 1
vt 0.28125 0.375
vt 0.40625 0.375
vt 0.40625 1
vt 0.28125 1
vt 0.15625 0.96875
vt 0.21875 0.96875
vt 0.21875 1
vt 0.15625 1
vt 0.15625 0.96875
vt 0.21875 0.96875
vt 0.21875 1
vt 0.15625 1
vn 0 0 0
vn 0.9453745685405305 0.01650157447536045 -0.3255681544571582
vn 0 0 0
vn -0.9453745685405305 -0.016501574475360447 0.32556815445715814
vn 0 0 0
vn 0 0 0
usemtl 3
f 113/337/85 114/338/85 115/339/85 116/340/85
f 117/341/86 113/342/86 116/343/86 118/344/86
f 119/345/87 117/346/87 118/347/87 120/348/87
f 114/349/88 119/350/88 120/351/88 115/352/88
f 120/353/89 118/354/89 116/355/89 115/356/89
f 114/357/90 113/358/90 117/359/90 119/360/90
o infinityelytra_right_wing_energy_cover6
v 0.7937809625539615 1.6762743423712985 1.026342611954952
v 0.7346950520201784 1.6752429939665883 1.046690621608524
v 0.765009689817181 1.5873703262651906 1.1302634461765395
v 0.8240956003509641 1.5884016746699006 1.109915436522967
v 0.7801662330229385 1.6318357905471441 0.9845561996709442
v 0.8104808708199411 1.5439631228457464 1.0681290242389594
v 0.7210803224891553 1.6308044421424341 1.0049042093245166
v 0.751394960286158 1.5429317744410365 1.0884770338925318
vt 0 0.9375
vt 0.03125 0.9375
vt 0.03125 1
vt 0 1
vt 0 0.9375
vt 0.031250000000000056 0.9375
vt 0.031250000000000056 1
vt 0 1
vt 0 0.9375
vt 0.03125 0.9375
vt 0.03125 1
vt 0 1
vt 0 0.9375
vt 0.031250000000000056 0.9375
vt 0.031250000000000056 1
vt 0 1
vt 0 0.96875
vt 0.03125 0.96875
vt 0.03125 1
vt 0 1
vt 0 0.96875
vt 0.03125 0.96875
vt 0.03125 1
vt 0 1
vn 0.21783567249636318 0.7110168291864669 0.6685825965441217
vn 0.9453745685405305 0.016501574475360985 -0.325568154457158
vn -0.2178356724963677 -0.7110168291864661 -0.6685825965441211
vn -0.9453745685405299 -0.016501574475359635 0.3255681544571605
vn 0.24251710237602064 -0.7029813416111833 0.6685825965441214
vn -0.2425171023760213 0.7029813416111816 -0.6685825965441231
usemtl 3
f 121/361/91 122/362/91 123/363/91 124/364/91
f 125/365/92 121/366/92 124/367/92 126/368/92
f 127/369/93 125/370/93 126/371/93 128/372/93
f 122/373/94 127/374/94 128/375/94 123/376/94
f 128/377/95 126/378/95 124/379/95 123/380/95
f 122/381/96 121/382/96 125/383/96 127/384/96
o infinityelytra_left_wing_base
v -0.3652670410366926 1.5140914336218347 0.06177518508555717
v -0.4834388621042589 1.516154130431255 0.021079165778412387
v -0.5106683211663048 1.6050312340795632 0.10465199034642762
v -0.3924965000987385 1.602968537270143 0.14534800965357242
v -0.3955816788336952 1.4262187659204368 0.14534800965357236
v -0.4228111378957411 1.515095869568745 0.2289208342215876
v -0.5137534999012615 1.428281462729857 0.1046519903464276
v -0.5409829589633074 1.5171585663781653 0.18822481491444282
vt 0.125 0.75
vt 0.0625 0.75
vt 0.0625 0.8125
vt 0.125 0.8125
vt 0.125 0.75
vt 0.0625 0.75
vt 0.0625 0.8125
vt 0.125 0.8125
vt 0.125 0.75
vt 0.0625 0.75
vt 0.0625 0.8125
vt 0.125 0.8125
vt 0.125 0.75
vt 0.0625 0.75
vt 0.0625 0.8125
vt 0.125 0.8125
vt 0.125 0.75
vt 0.0625 0.75
vt 0.0625 0.8125
vt 0.125 0.8125
vt 0.125 0.75
vt 0.0625 0.75
vt 0.0625 0.8125
vt 0.125 0.8125
vn 0.2425171023760215 0.7029813416111826 -0.6685825965441219
vn 0.9453745685405305 -0.01650157447536072 0.3255681544571582
vn -0.2425171023760214 -0.7029813416111826 0.6685825965441219
vn -0.9453745685405305 0.0165015744753606 -0.32556815445715825
vn -0.21783567249636676 0.7110168291864652 0.6685825965441223
vn 0.2178356724963667 -0.7110168291864652 -0.6685825965441222
usemtl 3
f 129/385/97 130/386/97 131/387/97 132/388/97
f 133/389/98 129/390/98 132/391/98 134/392/98
f 135/393/99 133/394/99 134/395/99 136/396/99
f 130/397/100 135/398/100 136/399/100 131/400/100
f 136/401/101 134/402/101 132/403/101 131/404/101
f 130/405/102 129/406/102 133/407/102 135/408/102
o infinityelytra_left_wing_energy_channel_led1
v -0.4258287850902554 1.5925001280098232 0.1456206078977881
v -0.48491469562403855 1.5935314764145332 0.12527259824421572
v -0.5529883432791532 1.8157242355353038 0.33420465966425383
v -0.49390243274537016 1.8146928871305936 0.3545526693178262
v -0.456143422887258 1.5046274603084253 0.22919343246580332
v -0.5242170705423728 1.7268202194291957 0.43812549388584143
v -0.5152293334210412 1.5056588087131355 0.20884542281223092
v -0.5833029810761559 1.727851567833906 0.417777484232269
vt 0.03125 0.78125
vt 0 0.78125
vt 0 0.9375
vt 0.03125 0.9375
vt 0.0625 0.78125
vt 0 0.78125
vt 0 0.9375
vt 0.0625 0.9375
vt 0.03125 0.78125
vt 0 0.78125
vt 0 0.9375
vt 0.03125 0.9375
vt 0.0625 0.78125
vt 0 0.78125
vt 0 0.9375
vt 0.0625 0.9375
vt 0.03125 0.875
vt 0 0.875
vt 0 0.9375
vt 0.03125 0.9375
vt 0.0625 0.78125
vt 0.0625 0.8125
vt 0 0.8125
vt 0 0.78125
vn 0.24251710237602034 0.7029813416111828 -0.6685825965441222
vn 0.9453745685405304 -0.016501574475360558 0.3255681544571583
vn -0.24251710237602261 -0.7029813416111831 0.6685825965441211
vn -0.9453745685405305 0.016501574475360693 -0.32556815445715825
vn -0.21783567249636593 0.7110168291864655 0.6685825965441223
vn 0.2178356724963679 -0.7110168291864654 -0.6685825965441219
usemtl 3
f 137/409/103 138/410/103 139/411/103 140/412/103
f 141/413/104 137/414/104 140/415/104 142/416/104
f 143/417/105 141/418/105 142/419/105 144/420/105
f 138/421/106 143/422/106 144/423/106 139/424/106
f 144/425/107 142/426/107 140/427/107 139/428/107
f 138/429/108 137/430/108 141/431/108 143/432/108
o infinityelytra_left_wing_energy_channel_led2
v -0.5115791858516009 1.8325247352552543 0.40678568467283577
v -0.5706650963853841 1.8335560836599645 0.38643767501926335
v -0.733424380810539 1.8363970575372754 0.8591969628189216
v -0.6743384702767558 1.8353657091325655 0.879544972472494
v -0.5137607366562613 1.7075437733607055 0.4067856846728357
v -0.6765200210814162 1.7103847472380165 0.8795449724724939
v -0.5728466471900445 1.7085751217654155 0.3864376750192633
v -0.7356059316151993 1.7114160956427265 0.8591969628189214
vt 0.03125 0.53125
vt 0 0.53125
vt 0 0.78125
vt 0.03125 0.78125
vt 0.0625 0.53125
vt 0 0.53125
vt 0 0.78125
vt 0.0625 0.78125
vt 0.03125 0.53125
vt 0 0.53125
vt 0 0.78125
vt 0.03125 0.78125
vt 0.0625 0.53125
vt 0 0.53125
vt 0 0.78125
vt 0.0625 0.78125
vt 0.03125 0.71875
vt 0 0.71875
vt 0 0.78125
vt 0.03125 0.78125
vt 0.03125 0.71875
vt 0 0.71875
vt 0 0.78125
vt 0.03125 0.78125
vn 0.017452406437285652 0.9998476951563913 1.4571677198205164e-15
vn 0.9453745685405305 -0.016501574475360707 0.32556815445715825
vn -0.017452406437282294 -0.9998476951563914 -3.009745230819758e-16
vn -0.9453745685405305 0.01650157447536068 -0.32556815445715803
vn -0.32551856885031044 0.005681947754621748 0.9455185755993161
vn 0.3255185688503098 -0.005681947754622192 -0.9455185755993163
usemtl 3
f 145/433/109 146/434/109 147/435/109 148/436/109
f 149/437/110 145/438/110 148/439/110 150/440/110
f 151/441/111 149/442/111 150/443/111 152/444/111
f 146/445/112 151/446/112 152/447/112 147/448/112
f 152/449/113 150/450/113 148/451/113 147/452/113
f 146/453/114 145/454/114 149/455/114 151/456/114
o infinityelytra_left_wing_energy_channel_led3
v -0.6740657764261732 1.850988329369384 0.8795449724724937
v -0.7331516869599563 1.852019677774094 0.8591969628189213
v -0.7937809625539615 1.6762743423712985 1.026342611954952
v -0.7346950520201784 1.6752429939665883 1.046690621608524
v -0.6604510468951501 1.80654977754523 0.837758560188486
v -0.7210803224891553 1.6308044421424341 1.0049042093245166
v -0.7195369574289333 1.80758112594994 0.8174105505349136
v -0.7801662330229385 1.6318357905471441 0.9845561996709442
vt 0.03125 0.875
vt 0 0.875
vt 0 0.9375
vt 0.03125 0.9375
vt 0.031250000000000056 0.875
vt 0 0.875
vt 0 0.9375
vt 0.031250000000000056 0.9375
vt 0.03125 0.875
vt 0 0.875
vt 0 1
vt 0.03125 1
vt 0.031250000000000056 0.875
vt 0 0.875
vt 0 0.9375
vt 0.031250000000000056 0.9375
vt 0.03125 0.96875
vt 0 0.96875
vt 0 1
vt 0.03125 1
vt 0.03125 0.96875
vt 0 0.96875
vt 0 1
vt 0.03125 1
vn -0.21783567249636812 0.7110168291864661 0.6685825965441209
vn 0.9453745685405303 -0.016501574475359857 0.3255681544571591
vn 0.21783567249636793 -0.7110168291864657 -0.6685825965441216
vn -0.9453745685405307 0.01650157447536084 -0.3255681544571578
vn -0.24251710237602064 -0.702981341611182 0.668582596544123
vn 0.24251710237602053 0.7029813416111836 -0.6685825965441212
usemtl 3
f 153/457/115 154/458/115 155/459/115 156/460/115
f 157/461/116 153/462/116 156/463/116 158/464/116
f 159/465/117 157/466/117 158/467/117 160/468/117
f 154/469/118 159/470/118 160/471/118 155/472/118
f 160/473/119 158/474/119 156/475/119 155/476/119
f 154/477/120 153/478/120 157/479/120 159/480/120
o infinityelytra_left_wing_arm1
v -0.4076538189972398 1.5590322034194442 0.18713442193758
v -0.5258256400648061 1.561094900228864 0.14643840263043523
v -0.5938992877199208 1.7832876593496345 0.35537046405047334
v -0.47572746665235455 1.7812249625402146 0.39606648335761807
v -0.4228111378957411 1.515095869568745 0.2289208342215876
v -0.49088478555085585 1.7372886286895155 0.43785289564162566
v -0.5409829589633074 1.5171585663781653 0.18822481491444282
v -0.6090566066184222 1.7393513254989357 0.39715687633448093
vt 0.96875 0.515625
vt 0.84375 0.515625
vt 0.84375 0.828125
vt 0.96875 0.828125
vt 0.90625 0.515625
vt 0.84375 0.515625
vt 0.84375 0.828125
vt 0.90625 0.828125
vt 0.96875 0.515625
vt 0.84375 0.515625
vt 0.84375 0.828125
vt 0.96875 0.828125
vt 0.90625 0.515625
vt 0.84375 0.515625
vt 0.84375 0.828125
vt 0.90625 0.828125
vt 0.96875 0.765625
vt 0.84375 0.765625
vt 0.84375 0.828125
vt 0.96875 0.828125
vt 0.96875 0.765625
vt 0.84375 0.765625
vt 0.84375 0.828125
vt 0.96875 0.828125
vn 0.24251710237602014 0.7029813416111831 -0.668582596544122
vn 0.9453745685405305 -0.016501574475360565 0.32556815445715837
vn -0.24251710237602145 -0.7029813416111831 0.6685825965441216
vn -0.9453745685405306 0.01650157447535994 -0.32556815445715787
vn -0.21783567249636665 0.7110168291864642 0.6685825965441233
vn 0.21783567249636815 -0.7110168291864644 -0.6685825965441229
usemtl 3
f 161/481/121 162/482/121 163/483/121 164/484/121
f 165/485/122 161/486/122 164/487/122 166/488/122
f 167/489/123 165/490/123 166/491/123 168/492/123
f 162/493/124 167/494/124 168/495/124 163/496/124
f 168/497/125 166/498/125 164/499/125 163/500/125
f 162/501/126 161/502/126 165/503/126 167/504/126
o infinityelytra_left_wing_arm2
v -0.46250940158331266 1.7847860786077796 0.35786477852466464
v -0.580681222650879 1.7868487754171998 0.31716875921751986
v -0.7841303281823225 1.7903999927638385 0.9081178689670926
v -0.6659585071147562 1.7883372959544186 0.9488138882742374
v -0.4636001769856429 1.7222955976605052 0.35786477852466464
v -0.6670492825170864 1.725846815007144 0.9488138882742374
v -0.5817719980532092 1.7243582944699252 0.31716875921751986
v -0.7852211035846527 1.7279095118165642 0.9081178689670926
vt 0.84375 0.375
vt 0.71875 0.375
vt 0.71875 1
vt 0.84375 1
vt 0.78125 0.375
vt 0.71875 0.375
vt 0.71875 1
vt 0.78125 1
vt 0.84375 0.375
vt 0.71875 0.375
vt 0.71875 1
vt 0.84375 1
vt 0.78125 0.375
vt 0.71875 0.375
vt 0.71875 1
vt 0.78125 1
vt 0.84375 0.9375
vt 0.71875 0.9375
vt 0.71875 1
vt 0.84375 1
vt 0.84375 0.9375
vt 0.71875 0.9375
vt 0.71875 1
vt 0.84375 1
vn 0.017452406437284015 0.9998476951563913 7.993605777301127e-16
vn 0.9453745685405305 -0.016501574475360565 0.3255681544571583
vn -0.01745240643728233 -0.9998476951563913 -2.1788126858268686e-16
vn -0.9453745685405305 0.016501574475361346 -0.3255681544571581
vn -0.3255185688503101 0.00568194775462226 0.9455185755993162
vn 0.32551856885030966 -0.005681947754622614 -0.9455185755993163
usemtl 3
f 169/505/127 170/506/127 171/507/127 172/508/127
f 173/509/128 169/510/128 172/511/128 174/512/128
f 175/513/129 173/514/129 174/515/129 176/516/129
f 170/517/130 175/518/130 176/519/130 171/520/130
f 176/521/131 174/522/131 172/523/131 171/524/131
f 170/525/132 169/526/132 173/527/132 175/528/132
o infinityelytra_left_wing_arm3
v -0.6528727752922714 1.784317045404253 0.9106121834412837
v -0.7710445963598377 1.7863797422136731 0.869916164134139
v -0.8619885097508455 1.5227617391094797 1.1206346378381846
v -0.7438166886832792 1.5206990423000595 1.1613306571453295
v -0.6392580457612485 1.7398784935800988 0.868825771157276
v -0.7302019591522563 1.4762604904759054 1.1195442448613218
v -0.7574298668288147 1.741941190389519 0.8281297518501313
v -0.8483737802198226 1.4783231872853255 1.078848225554177
vt 0.96875 0.140625
vt 0.84375 0.140625
vt 0.84375 0.515625
vt 0.96875 0.515625
vt 0.90625 0.140625
vt 0.84375 0.140625
vt 0.84375 0.515625
vt 0.90625 0.515625
vt 0.96875 0.140625
vt 0.84375 0.140625
vt 0.84375 0.515625
vt 0.96875 0.515625
vt 0.90625 0.140625
vt 0.84375 0.140625
vt 0.84375 0.515625
vt 0.90625 0.515625
vt 0.96875 0.4531249999999999
vt 0.84375 0.4531249999999999
vt 0.84375 0.515625
vt 0.96875 0.515625
vt 0.96875 0.4531249999999999
vt 0.84375 0.4531249999999999
vt 0.84375 0.515625
vt 0.96875 0.515625
vn -0.21783567249636634 0.7110168291864657 0.668582596544122
vn 0.9453745685405306 -0.01650157447536088 0.3255681544571578
vn 0.21783567249636626 -0.7110168291864658 -0.668582596544122
vn -0.9453745685405306 0.016501574475360974 -0.32556815445715787
vn -0.2425171023760216 -0.7029813416111833 0.6685825965441211
vn 0.2425171023760211 0.7029813416111834 -0.6685825965441213
usemtl 3
f 177/529/133 178/530/133 179/531/133 180/532/133
f 181/533/134 177/534/134 180/535/134 182/536/134
f 183/537/135 181/538/135 182/539/135 184/540/135
f 178/541/136 183/542/136 184/543/136 179/544/136
f 184/545/137 182/546/137 180/547/137 179/548/137
f 178/549/138 177/550/138 181/551/138 183/552/138
o infinityelytra_left_wing_energy_cover1
v -0.3924965000987385 1.602968537270143 0.14534800965357242
v -0.5106683211663048 1.6050312340795632 0.10465199034642762
v -0.5378977802283507 1.6939083377278712 0.18822481491444287
v -0.41972595916078437 1.6918456409184512 0.22892083422158765
v -0.4076538189972398 1.5590322034194442 0.18713442193758
v -0.43488327805928567 1.6479093070677522 0.27070724650559524
v -0.5258256400648061 1.561094900228864 0.14643840263043523
v -0.553055099126852 1.6499720038771724 0.23001122719845046
vt 0.0625 0.9375
vt 0 0.9375
vt 0 1
vt 0.0625 1
vt 0.03125 0.9375
vt 0 0.9375
vt 0 1
vt 0.03125 1
vt 0.0625 0.9375
vt 0 0.9375
vt 0 1
vt 0.0625 1
vt 0.03125 0.9375
vt 0 0.9375
vt 0 1
vt 0.03125 1
vt 0.0625 0.96875
vt 0 0.96875
vt 0 1
vt 0.0625 1
vt 0.0625 0.96875
vt 0 0.96875
vt 0 1
vt 0.0625 1
vn 0.24251710237602134 0.7029813416111836 -0.668582596544121
vn 0.9453745685405305 -0.016501574475360745 0.32556815445715825
vn -0.24251710237601995 -0.7029813416111836 0.6685825965441214
vn -0.9453745685405304 0.016501574475361214 -0.3255681544571588
vn -0.21783567249636698 0.7110168291864642 0.6685825965441233
vn 0.21783567249636648 -0.7110168291864661 -0.6685825965441214
usemtl 3
f 185/553/139 186/554/139 187/555/139 188/556/139
f 189/557/140 185/558/140 188/559/140 190/560/140
f 191/561/141 189/562/141 190/563/141 192/564/141
f 186/565/142 191/566/142 192/567/142 187/568/142
f 192/569/143 190/570/143 188/571/143 187/572/143
f 186/573/144 185/574/144 189/575/144 191/576/144
o infinityelytra_left_wing_energy_cover2
v -0.46141862618098245 1.847276559555054 0.3578647785246647
v -0.5795904472485488 1.8493392563644742 0.3171687592175199
v -0.6202802683548374 1.850049499833802 0.4353585811674344
v -0.5021084472872711 1.8479868030243818 0.4760546004745792
v -0.46250940158331266 1.7847860786077796 0.35786477852466464
v -0.5031992226896014 1.7854963220771074 0.4760546004745792
v -0.580681222650879 1.7868487754171998 0.31716875921751986
v -0.6213710437571677 1.7875590188865274 0.4353585811674344
vt 0.0625 0.9375
vt 0 0.9375
vt 0 1
vt 0.0625 1
vt 0.03125 0.9375
vt 0 0.9375
vt 0 1
vt 0.03125 1
vt 0.0625 0.9375
vt 0 0.9375
vt 0 1
vt 0.0625 1
vt 0.03125 0.9375
vt 0 0.9375
vt 0 1
vt 0.03125 1
vt 0.0625 0.96875
vt 0 0.96875
vt 0 1
vt 0.0625 1
vt 0.0625 0.96875
vt 0 0.96875
vt 0 1
vt 0.0625 1
vn 0.017452406437284133 0.9998476951563913 4.475586568020163e-16
vn 0.9453745685405305 -0.016501574475360853 0.325568154457158
vn -0.017452406437284136 -0.9998476951563914 -4.631711680858075e-16
vn -0.9453745685405306 0.016501574475360013 -0.3255681544571582
vn -0.3255185688503098 0.005681947754622947 0.9455185755993164
vn 0.32551856885030955 -0.005681947754621723 -0.9455185755993164
usemtl 3
f 193/577/145 194/578/145 195/579/145 196/580/145
f 197/581/146 193/582/146 196/583/146 198/584/146
f 199/585/147 197/586/147 198/587/147 200/588/147
f 194/589/148 199/590/148 200/591/148 195/592/148
f 200/593/149 198/594/149 196/595/149 195/596/149
f 194/597/150 193/598/150 197/599/150 199/600/150
o infinityelytra_left_wing_energy_cover3
v -0.5224533578404155 1.8483419247590458 0.5351495114495365
v -0.6406251789079818 1.8504046215684657 0.4944534921423917
v -0.6609700894611261 1.8507597433031298 0.553548403117349
v -0.5427982683935598 1.8486970464937096 0.5942444224244937
v -0.5235441332427457 1.7858514438117712 0.5351495114495365
v -0.5438890437958901 1.7862065655464352 0.5942444224244937
v -0.641715954310312 1.7879141406211914 0.49445349214239165
v -0.6620608648634564 1.7882692623558551 0.553548403117349
vt 0.0625 0.96875
vt 0 0.96875
vt 0 1
vt 0.0625 1
vt 0.03125 0.96875
vt 0 0.96875
vt 0 1
vt 0.03125 1
vt 0.0625 0.96875
vt 0 0.96875
vt 0 1
vt 0.0625 1
vt 0.03125 0.96875
vt 0 0.96875
vt 0 1
vt 0.03125 1
vt 0.0625 0.96875
vt 0 0.96875
vt 0 1
vt 0.0625 1
vt 0.0625 0.96875
vt 0 0.96875
vt 0 1
vt 0.0625 1
vn 0.01745240643728303 0.9998476951563913 -1.7971735211119718e-15
vn 0.9453745685405303 -0.016501574475361342 0.3255681544571585
vn -0.01745240643728471 -0.9998476951563913 1.2143064331837656e-15
vn -0.9453745685405306 0.016501574475361696 -0.3255681544571579
vn -0.32551856885030933 0.005681947754622837 0.9455185755993164
vn 0.3255185688503097 -0.005681947754622816 -0.9455185755993164
usemtl 3
f 201/601/151 202/602/151 203/603/151 204/604/151
f 205/605/152 201/606/152 204/607/152 206/608/152
f 207/609/153 205/610/153 206/611/153 208/612/153
f 202/613/154 207/614/154 208/615/154 203/616/154
f 208/617/155 206/618/155 204/619/155 203/620/155
f 202/621/156 201/622/156 205/623/156 207/624/156
o infinityelytra_left_wing_energy_cover4
v -0.5834880894998485 1.8494072899630374 0.7124342443744083
v -0.7016599105674148 1.8514699867724576 0.6717382250672636
v -0.7220048211205592 1.8518251085071213 0.7308331360422208
v -0.6038330000529929 1.8497624116977012 0.7715291553493655
v -0.5845788649021788 1.786916809015763 0.7124342443744083
v -0.6049237754553232 1.7872719307504268 0.7715291553493655
v -0.7027506859697451 1.788979505825183 0.6717382250672636
v -0.7230955965228895 1.789334627559847 0.7308331360422208
vt 0.0625 0.96875
vt 0 0.96875
vt 0 1
vt 0.0625 1
vt 0.03125 0.96875
vt 0 0.96875
vt 0 1
vt 0.03125 1
vt 0.0625 0.96875
vt 0 0.96875
vt 0 1
vt 0.0625 1
vt 0.03125 0.96875
vt 0 0.96875
vt 0 1
vt 0.03125 1
vt 0.0625 0.96875
vt 0 0.96875
vt 0 1
vt 0.0625 1
vt 0.0625 0.96875
vt 0 0.96875
vt 0 1
vt 0.0625 1
vn 0.017452406437283553 0.9998476951563913 2.144118216307335e-15
vn 0.9453745685405304 -0.0165015744753614 0.32556815445715853
vn -0.017452406437281874 -0.9998476951563913 -1.568190022283035e-15
vn -0.9453745685405303 0.016501574475361342 -0.32556815445715853
vn -0.3255185688503093 0.005681947754622836 0.9455185755993164
vn 0.3255185688503093 -0.005681947754622948 -0.9455185755993164
usemtl 3
f 209/625/157 210/626/157 211/627/157 212/628/157
f 213/629/158 209/630/158 212/631/158 214/632/158
f 215/633/159 213/634/159 214/635/159 216/636/159
f 210/637/160 215/638/160 216/639/160 211/640/160
f 216/641/161 214/642/161 212/643/161 211/644/161
f 210/645/162 209/646/162 213/647/162 215/648/162
o infinityelytra_left_wing_energy_cover5
v -0.6241779106061373 1.8501175334323652 0.8306240663243227
v -0.7423497316737036 1.8521802302417851 0.7899280470171781
v -0.7830395527799923 1.852890473711113 0.9081178689670926
v -0.664867731712426 1.850827776901693 0.9488138882742374
v -0.6252686860084675 1.7876270524850908 0.8306240663243227
v -0.6659585071147562 1.7883372959544186 0.9488138882742374
v -0.7434405070760338 1.7896897492945107 0.7899280470171781
v -0.7841303281823225 1.7903999927638385 0.9081178689670926
vt 0.0625 0.9375
vt 0 0.9375
vt 0 1
vt 0.0625 1
vt 0.03125 0.9375
vt 0 0.9375
vt 0 1
vt 0.03125 1
vt 0.0625 0.9375
vt 0 0.9375
vt 0 1
vt 0.0625 1
vt 0.03125 0.9375
vt 0 0.9375
vt 0 1
vt 0.03125 1
vt 0.0625 0.96875
vt 0 0.96875
vt 0 1
vt 0.0625 1
vt 0.0625 0.96875
vt 0 0.96875
vt 0 1
vt 0.0625 1
vn 0.017452406437282453 0.9998476951563913 -1.144917494144694e-16
vn 0.9453745685405306 -0.016501574475361405 0.325568154457158
vn -0.017452406437282457 -0.9998476951563913 1.1449174941446922e-16
vn -0.9453745685405304 0.0165015744753614 -0.32556815445715853
vn -0.32551856885031005 0.005681947754622835 0.9455185755993162
vn 0.3255185688503085 -0.005681947754622949 -0.9455185755993166
usemtl 3
f 217/649/163 218/650/163 219/651/163 220/652/163
f 221/653/164 217/654/164 220/655/164 222/656/164
f 223/657/165 221/658/165 222/659/165 224/660/165
f 218/661/166 223/662/166 224/663/166 219/664/166
f 224/665/167 222/666/167 220/667/167 219/668/167
f 218/669/168 217/670/168 221/671/168 223/672/168
o infinityelytra_left_wing_energy_cover6
v -0.7346950520201784 1.6752429939665883 1.046690621608524
v -0.7937809625539615 1.6762743423712985 1.026342611954952
v -0.8240956003509641 1.5884016746699006 1.109915436522967
v -0.765009689817181 1.5873703262651906 1.1302634461765395
v -0.7210803224891553 1.6308044421424341 1.0049042093245166
v -0.751394960286158 1.5429317744410365 1.0884770338925318
v -0.7801662330229385 1.6318357905471441 0.9845561996709442
v -0.8104808708199411 1.5439631228457464 1.0681290242389594
vt 0.03125 0.9375
vt 0 0.9375
vt 0 1
vt 0.03125 1
vt 0.031250000000000056 0.9375
vt 0 0.9375
vt 0 1
vt 0.031250000000000056 1
vt 0.03125 0.9375
vt 0 0.9375
vt 0 1
vt 0.03125 1
vt 0.031250000000000056 0.9375
vt 0 0.9375
vt 0 1
vt 0.031250000000000056 1
vt 0.03125 0.96875
vt 0 0.96875
vt 0 1
vt 0.03125 1
vt 0.03125 0.96875
vt 0 0.96875
vt 0 1
vt 0.03125 1
vn -0.21783567249636376 0.7110168291864652 0.6685825965441233
vn 0.9453745685405301 -0.01650157447535862 0.3255681544571595
vn 0.21783567249636773 -0.7110168291864662 -0.668582596544121
vn -0.9453745685405305 0.016501574475361006 -0.32556815445715803
vn -0.24251710237602064 -0.7029813416111833 0.6685825965441214
vn 0.24251710237602117 0.702981341611182 -0.6685825965441228
usemtl 3
f 225/673/169 226/674/169 227/675/169 228/676/169
f 229/677/170 225/678/170 228/679/170 230/680/170
f 231/681/171 229/682/171 230/683/171 232/684/171
f 226/685/172 231/686/172 232/687/172 227/688/172
f 232/689/173 230/690/173 228/691/173 227/692/173
f 226/693/174 225/694/174 229/695/174 231/696/174
o infinityelytra_left_wing_energy_mesh_led1
v -0.6282480707588702 1.923120072971846 0.6541709443830684
v -0.6282480707588702 1.923120072971846 0.6541709443830684
v -0.8707651731348911 1.220138731360663 1.3227535409271902
v -0.8707651731348911 1.220138731360663 1.3227535409271902
v -0.5874038821658014 1.7898044174993837 0.5288117075310456
v -0.8299209845418223 1.0868230758882007 1.1973943040751673
v -0.5874038821658014 1.7898044174993837 0.5288117075310456
v -0.8299209845418223 1.0868230758882007 1.1973943040751673
vt 0.21875 0.8125
vt 0.15625 0.8125
vt 0.15625 1
vt 0.21875 1
vt 0.71875 0
vt 0.53125 0
vt 0.53125 1
vt 0.71875 1
vt 0.21875 0.8125
vt 0.15625 0.8125
vt 0.15625 1
vt 0.21875 1
vt 0.53125 0
vt 0.71875 0
vt 0.71875 1
vt 0.53125 1
vt 0.21875 0.96875
vt 0.15625 0.96875
vt 0.15625 1
vt 0.21875 1
vt 0.21875 0.96875
vt 0.15625 0.96875
vt 0.15625 1
vt 0.21875 1
vn 0 0 0
vn 0.9453745685405306 -0.01650157447536067 0.32556815445715814
vn 0 0 0
vn -0.9453745685405306 0.01650157447536069 -0.3255681544571582
vn 0 0 0
vn 0 0 0
usemtl 3
f 233/697/175 234/698/175 235/699/175 236/700/175
f 237/701/176 233/702/176 236/703/176 238/704/176
f 239/705/177 237/706/177 238/707/177 240/708/177
f 234/709/178 239/710/178 240/711/178 235/712/178
f 240/713/179 238/714/179 236/715/179 235/716/179
f 234/717/180 233/718/180 237/719/180 239/720/180
o infinityelytra_left_wing_energy_mesh_led2
v -0.5736214649592165 1.7961939803876061 0.4891146158612384
v -0.5736214649592165 1.7961939803876061 0.4891146158612384
v -0.7858239295382348 1.1810853064778213 1.074124387837345
v -0.7858239295382348 1.1810853064778213 1.074124387837345
v -0.5463920058971706 1.7073168767392979 0.4055417912932231
v -0.7585944704761889 1.092208202829513 0.9905515632693297
v -0.5463920058971706 1.7073168767392979 0.4055417912932231
v -0.7585944704761889 1.092208202829513 0.9905515632693297
vt 0.21875 0.8125
vt 0.15625 0.8125
vt 0.15625 1
vt 0.21875 1
vt 0.53125 0.125
vt 0.40625 0.125
vt 0.40625 1
vt 0.53125 1
vt 0.21875 0.8125
vt 0.15625 0.8125
vt 0.15625 1
vt 0.21875 1
vt 0.40625 0.125
vt 0.53125 0.125
vt 0.53125 1
vt 0.40625 1
vt 0.21875 0.96875
vt 0.15625 0.96875
vt 0.15625 1
vt 0.21875 1
vt 0.21875 0.96875
vt 0.15625 0.96875
vt 0.15625 1
vt 0.21875 1
vn 0 0 0
vn 0.9453745685405306 -0.01650157447536074 0.3255681544571581
vn 0 0 0
vn -0.9453745685405306 0.016501574475360756 -0.3255681544571581
vn 0 0 0
vn 0 0 0
usemtl 3
f 241/721/181 242/722/181 243/723/181 244/724/181
f 245/725/182 241/726/182 244/727/182 246/728/182
f 247/729/183 245/730/183 246/731/183 248/732/183
f 242/733/184 247/734/184 248/735/184 243/736/184
f 248/737/185 246/738/185 244/739/185 243/740/185
f 242/741/186 241/742/186 245/743/186 247/744/186
o infinityelytra_left_wing_energy_mesh_led3
v -0.5333674546355109 1.7115096229349853 0.36793402023761657
v -0.5333674546355109 1.7115096229349853 0.36793402023761657
v -0.6849406436205239 1.272146284427996 0.7857981430776927
v -0.6849406436205239 1.272146284427996 0.7857981430776927
v -0.5061379955734651 1.6226325192866773 0.2843611956696014
v -0.657711184558478 1.183269180779688 0.7022253185096775
v -0.5061379955734651 1.6226325192866773 0.2843611956696014
v -0.657711184558478 1.183269180779688 0.7022253185096775
vt 0.21875 0.8125
vt 0.15625 0.8125
vt 0.15625 1
vt 0.21875 1
vt 0.40625 0.375
vt 0.28125 0.375
vt 0.28125 1
vt 0.40625 1
vt 0.21875 0.8125
vt 0.15625 0.8125
vt 0.15625 1
vt 0.21875 1
vt 0.28125 0.375
vt 0.40625 0.375
vt 0.40625 1
vt 0.28125 1
vt 0.21875 0.96875
vt 0.15625 0.96875
vt 0.15625 1
vt 0.21875 1
vt 0.21875 0.96875
vt 0.15625 0.96875
vt 0.15625 1
vt 0.21875 1
vn 0 0 0
vn 0.9453745685405305 -0.01650157447536045 0.3255681544571582
vn 0 0 0
vn -0.9453745685405305 0.016501574475360447 -0.32556815445715814
vn 0 0 0
vn 0 0 0
usemtl 3
f 249/745/187 250/746/187 251/747/187 252/748/187
f 253/749/188 249/750/188 252/751/188 254/752/188
f 255/753/189 253/754/189 254/755/189 256/756/189
f 250/757/190 255/758/190 256/759/190 251/760/190
f 256/761/191 254/762/191 252/763/191 251/764/191
f 250/765/192 249/766/192 253/767/192 255/768/192
o inactive_infinityelytra_right_arm_right_wing_base
v 0.5106683211663048 1.605031234079563 0.10465199034642758
v 0.3924965000987385 1.602968537270143 0.14534800965357236
v 0.4228111378957411 1.515095869568745 0.2289208342215876
v 0.5409829589633074 1.5171585663781653 0.18822481491444282
v 0.4834388621042589 1.516154130431255 0.0210791657784124
v 0.5137534999012615 1.428281462729857 0.10465199034642764
v 0.3652670410366926 1.5140914336218347 0.06177518508555718
v 0.39558167883369516 1.426218765920437 0.14534800965357242
vt 0.0625 0.75
vt 0.125 0.75
vt 0.125 0.8125
vt 0.0625 0.8125
vt 0.0625 0.75
vt 0.125 0.75
vt 0.125 0.8125
vt 0.0625 0.8125
vt 0.0625 0.75
vt 0.125 0.75
vt 0.125 0.8125
vt 0.0625 0.8125
vt 0.0625 0.75
vt 0.125 0.75
vt 0.125 0.8125
vt 0.0625 0.8125
vt 0.0625 0.75
vt 0.125 0.75
vt 0.125 0.8125
vt 0.0625 0.8125
vt 0.0625 0.75
vt 0.125 0.75
vt 0.125 0.8125
vt 0.0625 0.8125
vn 0.21783567249636782 0.7110168291864655 0.6685825965441217
vn 0.9453745685405305 0.016501574475360586 -0.3255681544571582
vn -0.21783567249636665 -0.7110168291864655 -0.6685825965441221
vn -0.9453745685405306 -0.016501574475360242 0.325568154457158
vn 0.24251710237602034 -0.7029813416111825 0.6685825965441226
vn -0.24251710237602014 0.7029813416111833 -0.6685825965441217
usemtl 3
f 257/769/193 258/770/193 259/771/193 260/772/193
f 261/773/194 257/774/194 260/775/194 262/776/194
f 263/777/195 261/778/195 262/779/195 264/780/195
f 258/781/196 263/782/196 264/783/196 259/784/196
f 264/785/197 262/786/197 260/787/197 259/788/197
f 258/789/198 257/790/198 261/791/198 263/792/198
o inactive_infinityelytra_right_arm_right_wing_energy_channel1
v 0.50803632131366 1.5055332542197717 0.1879522166702271
v 0.44895041077987696 1.5045019058150617 0.20830022632379952
v 0.5247370052723834 1.284820236561567 0.4172322877438376
v 0.5838229158061665 1.285851584966277 0.39688427809026516
v 0.4808068622516142 1.4166561505714634 0.10437939210221193
v 0.5565934567441206 1.1969744813179688 0.31331145352225
v 0.421720951717831 1.4156248021667535 0.12472740175578433
v 0.4975075462103375 1.1959431329132588 0.3336594631758224
vt 0 0.78125
vt 0.03125 0.78125
vt 0.03125 0.9375
vt 0 0.9375
vt 0 0.78125
vt 0.0625 0.78125
vt 0.0625 0.9375
vt 0 0.9375
vt 0 0.78125
vt 0.03125 0.78125
vt 0.03125 0.9375
vt 0 0.9375
vt 0 0.78125
vt 0.0625 0.78125
vt 0.0625 0.9375
vt 0 0.9375
vt 0 0.875
vt 0.03125 0.875
vt 0.03125 0.9375
vt 0 0.9375
vt 0.0625 0.8125
vt 0.0625 0.78125
vt 0 0.78125
vt 0 0.8125
vn 0.2178356724963683 0.7110168291864656 0.6685825965441216
vn 0.9453745685405306 0.016501574475360405 -0.3255681544571582
vn -0.21783567249636782 -0.7110168291864656 -0.6685825965441217
vn -0.9453745685405306 -0.01650157447536015 0.3255681544571584
vn 0.24251710237602073 -0.7029813416111825 0.6685825965441224
vn -0.24251710237602095 0.7029813416111825 -0.6685825965441223
usemtl 3
f 265/793/199 266/794/199 267/795/199 268/796/199
f 269/797/200 265/798/200 268/799/200 270/800/200
f 271/801/201 269/802/201 270/803/201 272/804/201
f 266/805/202 271/806/202 272/807/202 267/808/202
f 272/809/203 270/810/203 268/811/203 267/812/203
f 266/813/204 265/814/204 269/815/204 271/816/204
o inactive_infinityelytra_right_arm_right_wing_energy_channel2
v 0.5904903246836261 1.2307168327258737 0.41345035955953163
v 0.5314044141498429 1.2296854843211638 0.43379836921310405
v 0.5401306173684844 0.729761636742968 0.4337983692131041
v 0.5992165279022675 0.730792985147678 0.41345035955953174
v 0.5498005035773373 1.230006589256546 0.2952605376096171
v 0.5585267067959788 0.7300827416783502 0.29526053760961724
v 0.49071459304355414 1.2289752408518357 0.31560854726318954
v 0.49944079626219573 0.7290513932736402 0.3156085472631896
vt 0 0.53125
vt 0.03125 0.53125
vt 0.03125 0.78125
vt 0 0.78125
vt 0 0.53125
vt 0.0625 0.53125
vt 0.0625 0.78125
vt 0 0.78125
vt 0 0.53125
vt 0.03125 0.53125
vt 0.03125 0.78125
vt 0 0.78125
vt 0 0.53125
vt 0.0625 0.53125
vt 0.0625 0.78125
vt 0 0.78125
vt 0 0.71875
vt 0.03125 0.71875
vt 0.03125 0.78125
vt 0 0.78125
vt 0 0.71875
vt 0.03125 0.71875
vt 0.03125 0.78125
vt 0 0.78125
vn 0.32551856885030983 0.005681947754622622 0.9455185755993163
vn 0.9453745685405305 0.016501574475360048 -0.32556815445715837
vn -0.32551856885030983 -0.00568194775462265 -0.9455185755993163
vn -0.9453745685405305 -0.016501574475360305 0.3255681544571585
vn 0.017452406437282467 -0.9998476951563913 1.0928757898653898e-16
vn -0.01745240643728244 0.9998476951563914 -1.188285581044112e-16
usemtl 3
f 273/817/205 274/818/205 275/819/205 276/820/205
f 277/821/206 273/822/206 276/823/206 278/824/206
f 279/825/207 277/826/207 278/827/207 280/828/207
f 274/829/208 279/830/208 280/831/208 275/832/208
f 280/833/209 278/834/209 276/835/209 275/836/209
f 274/837/210 273/838/210 277/839/210 279/840/210
o inactive_infinityelytra_right_arm_right_wing_energy_channel3
v 0.6043027555405536 0.7308817655813441 0.4282240873032709
v 0.5452168450067705 0.7298504171766341 0.44857209695684325
v 0.4907579268826786 0.5520962098800176 0.28142644782081294
v 0.5498438374164618 0.5531275582847277 0.26107843816724063
v 0.5891454366420523 0.7748180994320432 0.3864376750192631
v 0.5346865185179605 0.5970638921354267 0.21929202588323288
v 0.5300595261082691 0.7737867510273331 0.40678568467283555
v 0.4756006079841773 0.5960325437307166 0.23964003553680524
vt 0 0.875
vt 0.03125 0.875
vt 0.03125 0.9375
vt 0 0.9375
vt 0 0.875
vt 0.031250000000000056 0.875
vt 0.031250000000000056 0.9375
vt 0 0.9375
vt 0 0.875
vt 0.03125 0.875
vt 0.03125 1
vt 0 1
vt 0 0.875
vt 0.031250000000000056 0.875
vt 0.031250000000000056 0.9375
vt 0 0.9375
vt 0 0.96875
vt 0.03125 0.96875
vt 0.03125 1
vt 0 1
vt 0 0.96875
vt 0.03125 0.96875
vt 0.03125 1
vt 0 1
vn 0.24251710237602034 -0.7029813416111824 0.6685825965441226
vn 0.9453745685405309 0.01650157447535929 -0.3255681544571573
vn -0.24251710237602173 0.7029813416111824 -0.6685825965441222
vn -0.9453745685405303 -0.01650157447536061 0.3255681544571587
vn -0.21783567249636598 -0.7110168291864666 -0.6685825965441211
vn 0.21783567249636773 0.7110168291864655 0.6685825965441217
usemtl 3
f 281/841/211 282/842/211 283/843/211 284/844/211
f 285/845/212 281/846/212 284/847/212 286/848/212
f 287/849/213 285/850/213 286/851/213 288/852/213
f 282/853/214 287/854/214 288/855/214 283/856/214
f 288/857/215 286/858/215 284/859/215 283/860/215
f 282/861/216 281/862/216 285/863/216 287/864/216
o inactive_infinityelytra_right_arm_right_wing_arm1
v 0.5273682294322845 1.4727200145540111 0.14643840263043523
v 0.40919640836471816 1.470657317744591 0.18713442193758
v 0.4849830028572246 1.2509756484910963 0.39606648335761807
v 0.6031548239247909 1.2530383453005165 0.35537046405047334
v 0.5137534999012615 1.428281462729857 0.10465199034642764
v 0.589540094393768 1.2085997934763624 0.31358405176646575
v 0.39558167883369516 1.426218765920437 0.14534800965357242
v 0.4713682733262017 1.2065370966669424 0.3542800710736105
vt 0.84375 0.515625
vt 0.96875 0.515625
vt 0.96875 0.828125
vt 0.84375 0.828125
vt 0.84375 0.515625
vt 0.90625 0.515625
vt 0.90625 0.828125
vt 0.84375 0.828125
vt 0.84375 0.515625
vt 0.96875 0.515625
vt 0.96875 0.828125
vt 0.84375 0.828125
vt 0.84375 0.515625
vt 0.90625 0.515625
vt 0.90625 0.828125
vt 0.84375 0.828125
vt 0.84375 0.765625
vt 0.96875 0.765625
vt 0.96875 0.828125
vt 0.84375 0.828125
vt 0.84375 0.765625
vt 0.96875 0.765625
vt 0.96875 0.828125
vt 0.84375 0.828125
vn 0.21783567249636662 0.7110168291864656 0.668582596544122
vn 0.9453745685405306 0.01650157447536038 -0.32556815445715814
vn -0.21783567249636768 -0.7110168291864656 -0.6685825965441216
vn -0.9453745685405303 -0.016501574475359996 0.3255681544571588
vn 0.24251710237602012 -0.7029813416111825 0.6685825965441226
vn -0.2425171023760216 0.7029813416111825 -0.668582596544122
usemtl 3
f 289/865/217 290/866/217 291/867/217 292/868/217
f 293/869/218 289/870/218 292/871/218 294/872/218
f 295/873/219 293/874/219 294/875/219 296/876/219
f 290/877/220 295/878/220 296/879/220 291/880/220
f 296/881/221 294/882/221 292/883/221 291/884/221
f 290/885/222 289/886/222 293/887/222 295/888/222
o inactive_infinityelytra_right_arm_right_wing_arm2
v 0.6036838216333291 1.2934566465745052 0.3589551715015275
v 0.4855120005657628 1.2913939497650853 0.3996511908086723
v 0.4964197545890648 0.6664891402923406 0.3996511908086724
v 0.6145915756566311 0.6685518371017606 0.3589551715015276
v 0.5833389110801848 1.2931015248398412 0.2998602605265702
v 0.5942466651034868 0.6681967153670967 0.29986026052657033
v 0.46516709001261847 1.2910388280304212 0.340556279833715
v 0.47607484403592043 0.6661340185576767 0.3405562798337151
vt 0.71875 0.375
vt 0.84375 0.375
vt 0.84375 1
vt 0.71875 1
vt 0.71875 0.375
vt 0.78125 0.375
vt 0.78125 1
vt 0.71875 1
vt 0.71875 0.375
vt 0.84375 0.375
vt 0.84375 1
vt 0.71875 1
vt 0.71875 0.375
vt 0.78125 0.375
vt 0.78125 1
vt 0.71875 1
vt 0.71875 0.9375
vt 0.84375 0.9375
vt 0.84375 1
vt 0.71875 1
vt 0.71875 0.9375
vt 0.84375 0.9375
vt 0.84375 1
vt 0.71875 1
vn 0.3255185688503097 0.005681947754622663 0.9455185755993164
vn 0.9453745685405306 0.01650157447536032 -0.32556815445715825
vn -0.3255185688503097 -0.005681947754622697 -0.9455185755993163
vn -0.9453745685405306 -0.016501574475360242 0.3255681544571583
vn 0.01745240643728245 -0.9998476951563914 1.1796119636642283e-16
vn -0.01745240643728303 0.9998476951563913 -1.7902346272080645e-15
usemtl 3
f 297/889/223 298/890/223 299/891/223 300/892/223
f 301/893/224 297/894/224 300/895/224 302/896/224
f 303/897/225 301/898/225 302/899/225 304/900/225
f 298/901/226 303/902/226 304/903/226 299/904/226
f 304/905/227 302/906/227 300/907/227 299/908/227
f 298/909/228 297/910/228 301/911/228 303/912/228
o inactive_infinityelytra_right_arm_right_wing_arm3
v 0.6126523218271716 0.7089270548848945 0.3553704640504733
v 0.49448050075960526 0.7068643580754744 0.39606648335761807
v 0.41279212357346756 0.4402330471305497 0.14534800965357264
v 0.5309639446410339 0.4422957439399698 0.10465199034642791
v 0.5974950029286703 0.7528633887355934 0.31358405176646553
v 0.5158066257425326 0.4862320777906688 0.06286557806242021
v 0.47932318186110395 0.7508006919261734 0.35428007107361037
v 0.39763480467496626 0.48416938098124873 0.10356159736956494
vt 0.84375 0.140625
vt 0.96875 0.140625
vt 0.96875 0.515625
vt 0.84375 0.515625
vt 0.84375 0.140625
vt 0.90625 0.140625
vt 0.90625 0.515625
vt 0.84375 0.515625
vt 0.84375 0.140625
vt 0.96875 0.140625
vt 0.96875 0.515625
vt 0.84375 0.515625
vt 0.84375 0.140625
vt 0.90625 0.140625
vt 0.90625 0.515625
vt 0.84375 0.515625
vt 0.84375 0.4531249999999999
vt 0.96875 0.4531249999999999
vt 0.96875 0.515625
vt 0.84375 0.515625
vt 0.84375 0.4531249999999999
vt 0.96875 0.4531249999999999
vt 0.96875 0.515625
vt 0.84375 0.515625
vn 0.24251710237602103 -0.7029813416111825 0.6685825965441222
vn 0.9453745685405309 0.016501574475359326 -0.3255681544571573
vn -0.24251710237602123 0.7029813416111824 -0.6685825965441223
vn -0.9453745685405306 -0.016501574475360034 0.32556815445715814
vn -0.21783567249636684 -0.7110168291864658 -0.6685825965441217
vn 0.21783567249636698 0.7110168291864662 0.6685825965441211
usemtl 3
f 305/913/229 306/914/229 307/915/229 308/916/229
f 309/917/230 305/918/230 308/919/230 310/920/230
f 311/921/231 309/922/231 310/923/231 312/924/231
f 306/925/232 311/926/232 312/927/232 307/928/232
f 312/929/233 310/930/233 308/931/233 307/932/233
f 306/933/234 305/934/234 309/935/234 311/936/234
o inactive_infinityelytra_right_arm_right_wing_energy_cover1
v 0.5409829589633074 1.5171585663781653 0.18822481491444282
v 0.4228111378957411 1.515095869568745 0.2289208342215876
v 0.4531257756927437 1.4272232018673474 0.31249365878960284
v 0.57129759676031 1.4292858986767674 0.27179763948245805
v 0.5273682294322845 1.4727200145540111 0.14643840263043523
v 0.5576828672292871 1.3848473468526132 0.23001122719845046
v 0.40919640836471816 1.470657317744591 0.18713442193758
v 0.4395110461617207 1.3827846500431933 0.27070724650559524
vt 0 0.9375
vt 0.0625 0.9375
vt 0.0625 1
vt 0 1
vt 0 0.9375
vt 0.03125 0.9375
vt 0.03125 1
vt 0 1
vt 0 0.9375
vt 0.0625 0.9375
vt 0.0625 1
vt 0 1
vt 0 0.9375
vt 0.03125 0.9375
vt 0.03125 1
vt 0 1
vt 0 0.96875
vt 0.0625 0.96875
vt 0.0625 1
vt 0 1
vt 0 0.96875
vt 0.0625 0.96875
vt 0.0625 1
vt 0 1
vn 0.21783567249636634 0.7110168291864662 0.6685825965441212
vn 0.9453745685405305 0.016501574475360516 -0.3255681544571583
vn -0.21783567249636665 -0.7110168291864655 -0.6685825965441221
vn -0.9453745685405306 -0.016501574475360232 0.325568154457158
vn 0.24251710237602034 -0.7029813416111825 0.6685825965441226
vn -0.2425171023760216 0.7029813416111825 -0.668582596544122
usemtl 3
f 313/937/235 314/938/235 315/939/235 316/940/235
f 317/941/236 313/942/236 316/943/236 318/944/236
f 319/945/237 317/946/237 318/947/237 320/948/237
f 314/949/238 319/950/238 320/951/238 315/952/238
f 320/953/239 318/954/239 316/955/239 315/956/239
f 314/957/240 313/958/240 317/959/240 319/960/240
o inactive_infinityelytra_right_arm_right_wing_energy_cover2
v 0.6240287321864735 1.293811768309169 0.41805008247648473
v 0.5058569111189072 1.291749071499749 0.4587461017836295
v 0.5080384619235676 1.1667681096052003 0.45874610178362957
v 0.6262102829911339 1.1688308064146202 0.4180500824764848
v 0.6036838216333291 1.2934566465745052 0.3589551715015275
v 0.6058653724379895 1.1684756846799562 0.3589551715015275
v 0.4855120005657628 1.2913939497650853 0.3996511908086723
v 0.48769355137042325 1.1664129878705363 0.3996511908086723
vt 0 0.9375
vt 0.0625 0.9375
vt 0.0625 1
vt 0 1
vt 0 0.9375
vt 0.03125 0.9375
vt 0.03125 1
vt 0 1
vt 0 0.9375
vt 0.0625 0.9375
vt 0.0625 1
vt 0 1
vt 0 0.9375
vt 0.03125 0.9375
vt 0.03125 1
vt 0 1
vt 0 0.96875
vt 0.0625 0.96875
vt 0.0625 1
vt 0 1
vt 0 0.96875
vt 0.0625 0.96875
vt 0.0625 1
vt 0 1
vn 0.32551856885030966 0.005681947754623003 0.9455185755993163
vn 0.9453745685405304 0.01650157447536041 -0.3255681544571585
vn -0.3255185688503097 -0.0056819477546226045 -0.9455185755993163
vn -0.9453745685405305 -0.016501574475360548 0.3255681544571585
vn 0.01745240643728303 -0.9998476951563913 1.7971735211119718e-15
vn -0.01745240643728187 0.9998476951563913 1.5681900222830346e-15
usemtl 3
f 321/961/241 322/962/241 323/963/241 324/964/241
f 325/965/242 321/966/242 324/967/242 326/968/242
f 327/969/243 325/970/243 326/971/243 328/972/243
f 322/973/244 327/974/244 328/975/244 323/976/244
f 328/977/245 326/978/245 324/979/245 323/980/245
f 322/981/246 321/982/246 325/983/246 327/984/246
o inactive_infinityelytra_right_arm_right_wing_energy_cover3
v 0.6273010583934641 1.1063403254673458 0.4180500824764848
v 0.5091292373258978 1.1042776286579257 0.45874610178362957
v 0.5102200127282279 1.0417871477106513 0.45874610178362957
v 0.6283918337957943 1.0438498445200712 0.4180500824764848
v 0.6069561478403197 1.1059852037326818 0.35895517150152756
v 0.60804692324265 1.0434947227854074 0.35895517150152756
v 0.4887843267727534 1.1039225069232619 0.3996511908086723
v 0.4898751021750836 1.0414320259759873 0.3996511908086723
vt 0 0.96875
vt 0.0625 0.96875
vt 0.0625 1
vt 0 1
vt 0 0.96875
vt 0.03125 0.96875
vt 0.03125 1
vt 0 1
vt 0 0.96875
vt 0.0625 0.96875
vt 0.0625 1
vt 0 1
vt 0 0.96875
vt 0.03125 0.96875
vt 0.03125 1
vt 0 1
vt 0 0.96875
vt 0.0625 0.96875
vt 0.0625 1
vt 0 1
vt 0 0.96875
vt 0.0625 0.96875
vt 0.0625 1
vt 0 1
vn 0.32551856885030966 0.005681947754622281 0.9455185755993163
vn 0.9453745685405304 0.016501574475361352 -0.3255681544571586
vn -0.32551856885030933 -0.005681947754622837 -0.9455185755993164
vn -0.9453745685405305 -0.016501574475360502 0.3255681544571582
vn 0.017452406437283546 -0.9998476951563913 -2.1441182163073344e-15
vn -0.01745240643728471 0.9998476951563913 -1.2143064331837658e-15
usemtl 3
f 329/985/247 330/986/247 331/987/247 332/988/247
f 333/989/248 329/990/248 332/991/248 334/992/248
f 335/993/249 333/994/249 334/995/249 336/996/249
f 330/997/250 335/998/250 336/999/250 331/1000/250
f 336/1001/251 334/1002/251 332/1003/251 331/1004/251
f 330/1005/252 329/1006/252 333/1007/252 335/1008/252
o inactive_infinityelytra_right_arm_right_wing_energy_cover4
v 0.6305733846004546 0.9188688826255225 0.4180500824764848
v 0.5124015635328883 0.9168061858161023 0.45874610178362957
v 0.5134923389352185 0.8543157048688279 0.4587461017836296
v 0.6316641600027848 0.8563784016782479 0.41805008247648484
v 0.6102284740473103 0.9185137608908585 0.35895517150152756
v 0.6113192494496404 0.8560232799435841 0.35895517150152756
v 0.492056652979744 0.9164510640814385 0.39965119080867234
v 0.4931474283820742 0.8539605831341639 0.39965119080867234
vt 0 0.96875
vt 0.0625 0.96875
vt 0.0625 1
vt 0 1
vt 0 0.96875
vt 0.03125 0.96875
vt 0.03125 1
vt 0 1
vt 0 0.96875
vt 0.0625 0.96875
vt 0.0625 1
vt 0 1
vt 0 0.96875
vt 0.03125 0.96875
vt 0.03125 1
vt 0 1
vt 0 0.96875
vt 0.0625 0.96875
vt 0.0625 1
vt 0 1
vt 0 0.96875
vt 0.0625 0.96875
vt 0.0625 1
vt 0 1
vn 0.32551856885030966 0.005681947754623169 0.9455185755993163
vn 0.9453745685405304 0.016501574475359354 -0.3255681544571586
vn -0.3255185688503098 -0.005681947754622281 -0.9455185755993164
vn -0.9453745685405303 -0.016501574475360516 0.3255681544571585
vn 0.01745240643728356 -0.9998476951563913 -2.144118216307334e-15
vn -0.01745240643728471 0.9998476951563913 -1.2143064331837658e-15
usemtl 3
f 337/1009/253 338/1010/253 339/1011/253 340/1012/253
f 341/1013/254 337/1014/254 340/1015/254 342/1016/254
f 343/1017/255 341/1018/255 342/1019/255 344/1020/255
f 338/1021/256 343/1022/256 344/1023/256 339/1024/256
f 344/1025/257 342/1026/257 340/1027/257 339/1028/257
f 338/1029/258 337/1030/258 341/1031/258 343/1032/258
o inactive_infinityelytra_right_arm_right_wing_energy_cover5
v 0.6327549354051151 0.7938879207309735 0.41805008247648484
v 0.5145831143375488 0.7918252239215534 0.4587461017836296
v 0.5167646651422091 0.6668442620270045 0.4587461017836296
v 0.6349364862097755 0.6689069588364245 0.41805008247648484
v 0.6124100248519707 0.7935327989963096 0.35895517150152756
v 0.6145915756566311 0.6685518371017606 0.3589551715015276
v 0.4942382037844044 0.7914701021868895 0.39965119080867234
v 0.4964197545890648 0.6664891402923406 0.3996511908086724
vt 0 0.9375
vt 0.0625 0.9375
vt 0.0625 1
vt 0 1
vt 0 0.9375
vt 0.03125 0.9375
vt 0.03125 1
vt 0 1
vt 0 0.9375
vt 0.0625 0.9375
vt 0.0625 1
vt 0 1
vt 0 0.9375
vt 0.03125 0.9375
vt 0.03125 1
vt 0 1
vt 0 0.96875
vt 0.0625 0.96875
vt 0.0625 1
vt 0 1
vt 0 0.96875
vt 0.0625 0.96875
vt 0.0625 1
vt 0 1
vn 0.3255185688503097 0.005681947754622276 0.9455185755993163
vn 0.9453745685405305 0.016501574475360534 -0.32556815445715825
vn -0.3255185688503097 -0.005681947754622993 -0.9455185755993164
vn -0.9453745685405305 -0.016501574475359992 0.32556815445715825
vn 0.017452406437282443 -0.9998476951563913 1.179611963664229e-16
vn -0.017452406437283293 0.9998476951563913 1.7694179454963427e-16
usemtl 3
f 345/1033/259 346/1034/259 347/1035/259 348/1036/259
f 349/1037/260 345/1038/260 348/1039/260 350/1040/260
f 351/1041/261 349/1042/261 350/1043/261 352/1044/261
f 346/1045/262 351/1046/262 352/1047/262 347/1048/262
f 352/1049/263 350/1050/263 348/1051/263 347/1052/263
f 346/1053/264 345/1054/264 349/1055/264 351/1056/264
o inactive_infinityelytra_right_arm_right_wing_energy_cover6
v 0.5498438374164618 0.5531275582847277 0.26107843816724063
v 0.4907579268826786 0.5520962098800176 0.28142644782081294
v 0.46352846782063273 0.4632191062317094 0.19785362325279784
v 0.5226143783544159 0.4642504546364194 0.1775056135992254
v 0.5346865185179605 0.5970638921354267 0.21929202588323288
v 0.5074570594559146 0.5081867884871184 0.1357192013152177
v 0.4756006079841773 0.5960325437307166 0.23964003553680524
v 0.4483711489221314 0.5071554400824084 0.15606721096879012
vt 0 0.9375
vt 0.03125 0.9375
vt 0.03125 1
vt 0 1
vt 0 0.9375
vt 0.031250000000000056 0.9375
vt 0.031250000000000056 1
vt 0 1
vt 0 0.9375
vt 0.03125 0.9375
vt 0.03125 1
vt 0 1
vt 0 0.9375
vt 0.031250000000000056 0.9375
vt 0.031250000000000056 1
vt 0 1
vt 0 0.96875
vt 0.03125 0.96875
vt 0.03125 1
vt 0 1
vt 0 0.96875
vt 0.03125 0.96875
vt 0.03125 1
vt 0 1
vn 0.24251710237602056 -0.7029813416111824 0.6685825965441226
vn 0.9453745685405305 0.016501574475360697 -0.3255681544571582
vn -0.2425171023760213 0.7029813416111825 -0.6685825965441222
vn -0.9453745685405306 -0.016501574475360128 0.3255681544571581
vn -0.2178356724963681 -0.7110168291864658 -0.6685825965441214
vn 0.21783567249636526 0.7110168291864666 0.6685825965441214
usemtl 3
f 353/1057/265 354/1058/265 355/1059/265 356/1060/265
f 357/1061/266 353/1062/266 356/1063/266 358/1064/266
f 359/1065/267 357/1066/267 358/1067/267 360/1068/267
f 354/1069/268 359/1070/268 360/1071/268 355/1072/268
f 360/1073/269 358/1074/269 356/1075/269 355/1076/269
f 354/1077/270 353/1078/270 357/1079/270 359/1080/270
o inactive_infinityelytra_left_arm_left_wing_base
v -0.3924965000987385 1.602968537270143 0.14534800965357236
v -0.5106683211663048 1.605031234079563 0.10465199034642758
v -0.5409829589633074 1.5171585663781653 0.18822481491444282
v -0.4228111378957411 1.515095869568745 0.2289208342215876
v -0.3652670410366926 1.5140914336218347 0.06177518508555718
v -0.39558167883369516 1.426218765920437 0.14534800965357242
v -0.4834388621042589 1.516154130431255 0.0210791657784124
v -0.5137534999012615 1.428281462729857 0.10465199034642764
vt 0.125 0.75
vt 0.0625 0.75
vt 0.0625 0.8125
vt 0.125 0.8125
vt 0.125 0.75
vt 0.0625 0.75
vt 0.0625 0.8125
vt 0.125 0.8125
vt 0.125 0.75
vt 0.0625 0.75
vt 0.0625 0.8125
vt 0.125 0.8125
vt 0.125 0.75
vt 0.0625 0.75
vt 0.0625 0.8125
vt 0.125 0.8125
vt 0.125 0.75
vt 0.0625 0.75
vt 0.0625 0.8125
vt 0.125 0.8125
vt 0.125 0.75
vt 0.0625 0.75
vt 0.0625 0.8125
vt 0.125 0.8125
vn -0.21783567249636757 0.7110168291864664 0.6685825965441209
vn 0.9453745685405304 -0.01650157447536054 0.3255681544571582
vn 0.2178356724963664 -0.7110168291864662 -0.6685825965441213
vn -0.9453745685405305 0.016501574475360534 -0.32556815445715814
vn -0.24251710237602 -0.7029813416111834 0.6685825965441217
vn 0.2425171023760204 0.7029813416111825 -0.6685825965441224
usemtl 3
f 361/1081/271 362/1082/271 363/1083/271 364/1084/271
f 365/1085/272 361/1086/272 364/1087/272 366/1088/272
f 367/1089/273 365/1090/273 366/1091/273 368/1092/273
f 362/1093/274 367/1094/274 368/1095/274 363/1096/274
f 368/1097/275 366/1098/275 364/1099/275 363/1100/275
f 362/1101/276 361/1102/276 365/1103/276 367/1104/276
o inactive_infinityelytra_left_arm_left_wing_energy_channel1
v -0.44895041077987696 1.5045019058150617 0.20830022632379952
v -0.50803632131366 1.5055332542197717 0.1879522166702271
v -0.5838229158061665 1.285851584966277 0.39688427809026516
v -0.5247370052723834 1.284820236561567 0.4172322877438376
v -0.421720951717831 1.4156248021667535 0.12472740175578433
v -0.4975075462103375 1.1959431329132588 0.3336594631758224
v -0.4808068622516142 1.4166561505714634 0.10437939210221193
v -0.5565934567441206 1.1969744813179688 0.31331145352225
vt 0.03125 0.78125
vt 0 0.78125
vt 0 0.9375
vt 0.03125 0.9375
vt 0.0625 0.78125
vt 0 0.78125
vt 0 0.9375
vt 0.0625 0.9375
vt 0.03125 0.78125
vt 0 0.78125
vt 0 0.9375
vt 0.03125 0.9375
vt 0.0625 0.78125
vt 0 0.78125
vt 0 0.9375
vt 0.0625 0.9375
vt 0.03125 0.875
vt 0 0.875
vt 0 0.9375
vt 0.03125 0.9375
vt 0.0625 0.78125
vt 0.0625 0.8125
vt 0 0.8125
vt 0 0.78125
vn -0.21783567249636826 0.7110168291864656 0.6685825965441214
vn 0.9453745685405306 -0.016501574475360183 0.3255681544571584
vn 0.21783567249636784 -0.7110168291864656 -0.6685825965441217
vn -0.9453745685405306 0.01650157447536042 -0.3255681544571582
vn -0.24251710237602067 -0.7029813416111826 0.6685825965441223
vn 0.2425171023760209 0.7029813416111826 -0.6685825965441222
usemtl 3
f 369/1105/277 370/1106/277 371/1107/277 372/1108/277
f 373/1109/278 369/1110/278 372/1111/278 374/1112/278
f 375/1113/279 373/1114/279 374/1115/279 376/1116/279
f 370/1117/280 375/1118/280 376/1119/280 371/1120/280
f 376/1121/281 374/1122/281 372/1123/281 371/1124/281
f 370/1125/282 369/1126/282 373/1127/282 375/1128/282
o inactive_infinityelytra_left_arm_left_wing_energy_channel2
v -0.5314044141498429 1.2296854843211638 0.43379836921310405
v -0.5904903246836261 1.2307168327258737 0.41345035955953163
v -0.5992165279022675 0.730792985147678 0.41345035955953174
v -0.5401306173684844 0.729761636742968 0.4337983692131041
v -0.49071459304355414 1.2289752408518357 0.31560854726318954
v -0.49944079626219573 0.7290513932736402 0.3156085472631896
v -0.5498005035773373 1.230006589256546 0.2952605376096171
v -0.5585267067959788 0.7300827416783502 0.29526053760961724
vt 0.03125 0.53125
vt 0 0.53125
vt 0 0.78125
vt 0.03125 0.78125
vt 0.0625 0.53125
vt 0 0.53125
vt 0 0.78125
vt 0.0625 0.78125
vt 0.03125 0.53125
vt 0 0.53125
vt 0 0.78125
vt 0.03125 0.78125
vt 0.0625 0.53125
vt 0 0.53125
vt 0 0.78125
vt 0.0625 0.78125
vt 0.03125 0.71875
vt 0 0.71875
vt 0 0.78125
vt 0.03125 0.78125
vt 0.03125 0.71875
vt 0 0.71875
vt 0 0.78125
vt 0.03125 0.78125
vn -0.3255185688503098 0.00568194775462265 0.9455185755993163
vn 0.9453745685405305 -0.016501574475360298 0.3255681544571584
vn 0.32551856885030983 -0.0056819477546226245 -0.9455185755993163
vn -0.9453745685405305 0.016501574475360048 -0.3255681544571584
vn -0.017452406437282467 -0.9998476951563913 1.0885389811754478e-16
vn 0.01745240643728302 0.9998476951563913 -1.797173521111971e-15
usemtl 3
f 377/1129/283 378/1130/283 379/1131/283 380/1132/283
f 381/1133/284 377/1134/284 380/1135/284 382/1136/284
f 383/1137/285 381/1138/285 382/1139/285 384/1140/285
f 378/1141/286 383/1142/286 384/1143/286 379/1144/286
f 384/1145/287 382/1146/287 380/1147/287 379/1148/287
f 378/1149/288 377/1150/288 381/1151/288 383/1152/288
o inactive_infinityelytra_left_arm_left_wing_energy_channel3
v -0.5452168450067705 0.7298504171766341 0.44857209695684325
v -0.6043027555405536 0.7308817655813441 0.4282240873032709
v -0.5498438374164618 0.5531275582847277 0.26107843816724063
v -0.4907579268826786 0.5520962098800176 0.28142644782081294
v -0.5300595261082691 0.7737867510273331 0.40678568467283555
v -0.4756006079841773 0.5960325437307166 0.23964003553680524
v -0.5891454366420523 0.7748180994320432 0.3864376750192631
v -0.5346865185179605 0.5970638921354267 0.21929202588323288
vt 0.03125 0.875
vt 0 0.875
vt 0 0.9375
vt 0.03125 0.9375
vt 0.031250000000000056 0.875
vt 0 0.875
vt 0 0.9375
vt 0.031250000000000056 0.9375
vt 0.03125 0.875
vt 0 0.875
vt 0 1
vt 0.03125 1
vt 0.031250000000000056 0.875
vt 0 0.875
vt 0 0.9375
vt 0.031250000000000056 0.9375
vt 0.03125 0.96875
vt 0 0.96875
vt 0 1
vt 0.03125 1
vt 0.03125 0.96875
vt 0 0.96875
vt 0 1
vt 0.03125 1
vn -0.24251710237602034 -0.7029813416111825 0.6685825965441226
vn 0.9453745685405303 -0.016501574475360457 0.32556815445715886
vn 0.24251710237602167 0.7029813416111823 -0.6685825965441222
vn -0.9453745685405308 0.016501574475359007 -0.32556815445715764
vn 0.21783567249636618 -0.711016829186466 -0.6685825965441217
vn -0.21783567249636748 0.7110168291864662 0.6685825965441211
usemtl 3
f 385/1153/289 386/1154/289 387/1155/289 388/1156/289
f 389/1157/290 385/1158/290 388/1159/290 390/1160/290
f 391/1161/291 389/1162/291 390/1163/291 392/1164/291
f 386/1165/292 391/1166/292 392/1167/292 387/1168/292
f 392/1169/293 390/1170/293 388/1171/293 387/1172/293
f 386/1173/294 385/1174/294 389/1175/294 391/1176/294
o inactive_infinityelytra_left_arm_left_wing_arm1
v -0.40919640836471816 1.470657317744591 0.18713442193758
v -0.5273682294322845 1.4727200145540111 0.14643840263043523
v -0.6031548239247909 1.2530383453005165 0.35537046405047334
v -0.4849830028572246 1.2509756484910963 0.39606648335761807
v -0.39558167883369516 1.426218765920437 0.14534800965357242
v -0.4713682733262017 1.2065370966669424 0.3542800710736105
v -0.5137534999012615 1.428281462729857 0.10465199034642764
v -0.589540094393768 1.2085997934763624 0.31358405176646575
vt 0.96875 0.515625
vt 0.84375 0.515625
vt 0.84375 0.828125
vt 0.96875 0.828125
vt 0.90625 0.515625
vt 0.84375 0.515625
vt 0.84375 0.828125
vt 0.90625 0.828125
vt 0.96875 0.515625
vt 0.84375 0.515625
vt 0.84375 0.828125
vt 0.96875 0.828125
vt 0.90625 0.515625
vt 0.84375 0.515625
vt 0.84375 0.828125
vt 0.90625 0.828125
vt 0.96875 0.765625
vt 0.84375 0.765625
vt 0.84375 0.828125
vt 0.96875 0.828125
vt 0.96875 0.765625
vt 0.84375 0.765625
vt 0.84375 0.828125
vt 0.96875 0.828125
vn -0.21783567249636657 0.7110168291864656 0.6685825965441219
vn 0.9453745685405305 -0.01650157447535989 0.3255681544571587
vn 0.21783567249636776 -0.7110168291864656 -0.6685825965441217
vn -0.9453745685405306 0.01650157447536038 -0.32556815445715814
vn -0.2425171023760196 -0.7029813416111843 0.668582596544121
vn 0.24251710237602098 0.7029813416111844 -0.6685825965441202
usemtl 3
f 393/1177/295 394/1178/295 395/1179/295 396/1180/295
f 397/1181/296 393/1182/296 396/1183/296 398/1184/296
f 399/1185/297 397/1186/297 398/1187/297 400/1188/297
f 394/1189/298 399/1190/298 400/1191/298 395/1192/298
f 400/1193/299 398/1194/299 396/1195/299 395/1196/299
f 394/1197/300 393/1198/300 397/1199/300 399/1200/300
o inactive_infinityelytra_left_arm_left_wing_arm2
v -0.4855120005657628 1.2913939497650853 0.3996511908086723
v -0.6036838216333291 1.2934566465745052 0.3589551715015275
v -0.6145915756566311 0.6685518371017606 0.3589551715015276
v -0.4964197545890648 0.6664891402923406 0.3996511908086724
v -0.46516709001261847 1.2910388280304212 0.340556279833715
v -0.47607484403592043 0.6661340185576767 0.3405562798337151
v -0.5833389110801848 1.2931015248398412 0.2998602605265702
v -0.5942466651034868 0.6681967153670967 0.29986026052657033
vt 0.84375 0.375
vt 0.71875 0.375
vt 0.71875 1
vt 0.84375 1
vt 0.78125 0.375
vt 0.71875 0.375
vt 0.71875 1
vt 0.78125 1
vt 0.84375 0.375
vt 0.71875 0.375
vt 0.71875 1
vt 0.84375 1
vt 0.78125 0.375
vt 0.71875 0.375
vt 0.71875 1
vt 0.78125 1
vt 0.84375 0.9375
vt 0.71875 0.9375
vt 0.71875 1
vt 0.84375 1
vt 0.84375 0.9375
vt 0.71875 0.9375
vt 0.71875 1
vt 0.84375 1
vn -0.3255185688503097 0.005681947754622696 0.9455185755993164
vn 0.9453745685405306 -0.016501574475360235 0.32556815445715825
vn 0.3255185688503097 -0.0056819477546226635 -0.9455185755993163
vn -0.9453745685405306 0.016501574475360326 -0.3255681544571583
vn -0.017452406437282447 -0.9998476951563914 1.1796119636642283e-16
vn 0.01745240643728303 0.9998476951563913 -1.7971735211119718e-15
usemtl 3
f 401/1201/301 402/1202/301 403/1203/301 404/1204/301
f 405/1205/302 401/1206/302 404/1207/302 406/1208/302
f 407/1209/303 405/1210/303 406/1211/303 408/1212/303
f 402/1213/304 407/1214/304 408/1215/304 403/1216/304
f 408/1217/305 406/1218/305 404/1219/305 403/1220/305
f 402/1221/306 401/1222/306 405/1223/306 407/1224/306
o inactive_infinityelytra_left_arm_left_wing_arm3
v -0.49448050075960526 0.7068643580754744 0.39606648335761807
v -0.6126523218271716 0.7089270548848945 0.3553704640504733
v -0.5309639446410339 0.4422957439399698 0.10465199034642791
v -0.41279212357346756 0.4402330471305497 0.14534800965357264
v -0.47932318186110395 0.7508006919261734 0.35428007107361037
v -0.39763480467496626 0.48416938098124873 0.10356159736956494
v -0.5974950029286703 0.7528633887355934 0.31358405176646553
v -0.5158066257425326 0.4862320777906688 0.06286557806242021
vt 0.96875 0.140625
vt 0.84375 0.140625
vt 0.84375 0.515625
vt 0.96875 0.515625
vt 0.90625 0.140625
vt 0.84375 0.140625
vt 0.84375 0.515625
vt 0.90625 0.515625
vt 0.96875 0.140625
vt 0.84375 0.140625
vt 0.84375 0.515625
vt 0.96875 0.515625
vt 0.90625 0.140625
vt 0.84375 0.140625
vt 0.84375 0.515625
vt 0.90625 0.515625
vt 0.96875 0.4531249999999999
vt 0.84375 0.4531249999999999
vt 0.84375 0.515625
vt 0.96875 0.515625
vt 0.96875 0.4531249999999999
vt 0.84375 0.4531249999999999
vt 0.84375 0.515625
vt 0.96875 0.515625
vn -0.24251710237602106 -0.7029813416111823 0.6685825965441224
vn 0.9453745685405305 -0.016501574475360048 0.3255681544571581
vn 0.24251710237602117 0.7029813416111825 -0.6685825965441222
vn -0.9453745685405309 0.016501574475359108 -0.32556815445715753
vn 0.21783567249636693 -0.7110168291864657 -0.6685825965441218
vn -0.2178356724963671 0.7110168291864661 0.6685825965441213
usemtl 3
f 409/1225/307 410/1226/307 411/1227/307 412/1228/307
f 413/1229/308 409/1230/308 412/1231/308 414/1232/308
f 415/1233/309 413/1234/309 414/1235/309 416/1236/309
f 410/1237/310 415/1238/310 416/1239/310 411/1240/310
f 416/1241/311 414/1242/311 412/1243/311 411/1244/311
f 410/1245/312 409/1246/312 413/1247/312 415/1248/312
o inactive_infinityelytra_left_arm_left_wing_energy_cover1
v -0.4228111378957411 1.515095869568745 0.2289208342215876
v -0.5409829589633074 1.5171585663781653 0.18822481491444282
v -0.57129759676031 1.4292858986767674 0.27179763948245805
v -0.4531257756927437 1.4272232018673474 0.31249365878960284
v -0.40919640836471816 1.470657317744591 0.18713442193758
v -0.4395110461617207 1.3827846500431933 0.27070724650559524
v -0.5273682294322845 1.4727200145540111 0.14643840263043523
v -0.5576828672292871 1.3848473468526132 0.23001122719845046
vt 0.0625 0.9375
vt 0 0.9375
vt 0 1
vt 0.0625 1
vt 0.03125 0.9375
vt 0 0.9375
vt 0 1
vt 0.03125 1
vt 0.0625 0.9375
vt 0 0.9375
vt 0 1
vt 0.0625 1
vt 0.03125 0.9375
vt 0 0.9375
vt 0 1
vt 0.03125 1
vt 0.0625 0.96875
vt 0 0.96875
vt 0 1
vt 0.0625 1
vt 0.0625 0.96875
vt 0 0.96875
vt 0 1
vt 0.0625 1
vn -0.21783567249636665 0.7110168291864655 0.6685825965441221
vn 0.9453745685405305 -0.016501574475360537 0.32556815445715825
vn 0.2178356724963664 -0.7110168291864662 -0.6685825965441213
vn -0.9453745685405305 0.016501574475360516 -0.3255681544571583
vn -0.24251710237602023 -0.7029813416111828 0.6685825965441223
vn 0.24251710237602161 0.7029813416111825 -0.6685825965441221
usemtl 3
f 417/1249/313 418/1250/313 419/1251/313 420/1252/313
f 421/1253/314 417/1254/314 420/1255/314 422/1256/314
f 423/1257/315 421/1258/315 422/1259/315 424/1260/315
f 418/1261/316 423/1262/316 424/1263/316 419/1264/316
f 424/1265/317 422/1266/317 420/1267/317 419/1268/317
f 418/1269/318 417/1270/318 421/1271/318 423/1272/318
o inactive_infinityelytra_left_arm_left_wing_energy_cover2
v -0.5058569111189072 1.291749071499749 0.4587461017836295
v -0.6240287321864735 1.293811768309169 0.41805008247648473
v -0.6262102829911339 1.1688308064146202 0.4180500824764848
v -0.5080384619235676 1.1667681096052003 0.45874610178362957
v -0.4855120005657628 1.2913939497650853 0.3996511908086723
v -0.48769355137042325 1.1664129878705363 0.3996511908086723
v -0.6036838216333291 1.2934566465745052 0.3589551715015275
v -0.6058653724379895 1.1684756846799562 0.3589551715015275
vt 0.0625 0.9375
vt 0 0.9375
vt 0 1
vt 0.0625 1
vt 0.03125 0.9375
vt 0 0.9375
vt 0 1
vt 0.03125 1
vt 0.0625 0.9375
vt 0 0.9375
vt 0 1
vt 0.0625 1
vt 0.03125 0.9375
vt 0 0.9375
vt 0 1
vt 0.03125 1
vt 0.0625 0.96875
vt 0 0.96875
vt 0 1
vt 0.0625 1
vt 0.0625 0.96875
vt 0 0.96875
vt 0 1
vt 0.0625 1
vn -0.3255185688503097 0.0056819477546230035 0.9455185755993163
vn 0.9453745685405304 -0.01650157447536041 0.3255681544571585
vn 0.3255185688503098 -0.005681947754622549 -0.9455185755993164
vn -0.9453745685405305 0.016501574475360548 -0.3255681544571585
vn -0.01745240643728303 -0.9998476951563913 1.7902346272080645e-15
vn 0.017452406437281874 0.9998476951563913 1.5612511283791274e-15
usemtl 3
f 425/1273/319 426/1274/319 427/1275/319 428/1276/319
f 429/1277/320 425/1278/320 428/1279/320 430/1280/320
f 431/1281/321 429/1282/321 430/1283/321 432/1284/321
f 426/1285/322 431/1286/322 432/1287/322 427/1288/322
f 432/1289/323 430/1290/323 428/1291/323 427/1292/323
f 426/1293/324 425/1294/324 429/1295/324 431/1296/324
o inactive_infinityelytra_left_arm_left_wing_energy_cover3
v -0.5091292373258978 1.1042776286579257 0.45874610178362957
v -0.6273010583934641 1.1063403254673458 0.4180500824764848
v -0.6283918337957943 1.0438498445200712 0.4180500824764848
v -0.5102200127282279 1.0417871477106513 0.45874610178362957
v -0.4887843267727534 1.1039225069232619 0.3996511908086723
v -0.4898751021750836 1.0414320259759873 0.3996511908086723
v -0.6069561478403197 1.1059852037326818 0.35895517150152756
v -0.60804692324265 1.0434947227854074 0.35895517150152756
vt 0.0625 0.96875
vt 0 0.96875
vt 0 1
vt 0.0625 1
vt 0.03125 0.96875
vt 0 0.96875
vt 0 1
vt 0.03125 1
vt 0.0625 0.96875
vt 0 0.96875
vt 0 1
vt 0.0625 1
vt 0.03125 0.96875
vt 0 0.96875
vt 0 1
vt 0.03125 1
vt 0.0625 0.96875
vt 0 0.96875
vt 0 1
vt 0.0625 1
vt 0.0625 0.96875
vt 0 0.96875
vt 0 1
vt 0.0625 1
vn -0.3255185688503097 0.005681947754622926 0.9455185755993163
vn 0.9453745685405305 -0.01650157447535973 0.3255681544571582
vn 0.3255185688503093 -0.005681947754622594 -0.9455185755993164
vn -0.9453745685405304 0.016501574475361408 -0.3255681544571586
vn -0.017452406437284712 -0.9998476951563914 1.231653667943533e-15
vn 0.017452406437283553 0.9998476951563913 2.144118216307333e-15
usemtl 3
f 433/1297/325 434/1298/325 435/1299/325 436/1300/325
f 437/1301/326 433/1302/326 436/1303/326 438/1304/326
f 439/1305/327 437/1306/327 438/1307/327 440/1308/327
f 434/1309/328 439/1310/328 440/1311/328 435/1312/328
f 440/1313/329 438/1314/329 436/1315/329 435/1316/329
f 434/1317/330 433/1318/330 437/1319/330 439/1320/330
o inactive_infinityelytra_left_arm_left_wing_energy_cover4
v -0.5124015635328883 0.9168061858161023 0.45874610178362957
v -0.6305733846004546 0.9188688826255225 0.4180500824764848
v -0.6316641600027848 0.8563784016782479 0.41805008247648484
v -0.5134923389352185 0.8543157048688279 0.4587461017836296
v -0.492056652979744 0.9164510640814385 0.39965119080867234
v -0.4931474283820742 0.8539605831341639 0.39965119080867234
v -0.6102284740473103 0.9185137608908585 0.35895517150152756
v -0.6113192494496404 0.8560232799435841 0.35895517150152756
vt 0.0625 0.96875
vt 0 0.96875
vt 0 1
vt 0.0625 1
vt 0.03125 0.96875
vt 0 0.96875
vt 0 1
vt 0.03125 1
vt 0.0625 0.96875
vt 0 0.96875
vt 0 1
vt 0.0625 1
vt 0.03125 0.96875
vt 0 0.96875
vt 0 1
vt 0.03125 1
vt 0.0625 0.96875
vt 0 0.96875
vt 0 1
vt 0.0625 1
vt 0.0625 0.96875
vt 0 0.96875
vt 0 1
vt 0.0625 1
vn -0.3255185688503098 0.005681947754623038 0.9455185755993164
vn 0.9453745685405304 -0.01650157447535941 0.3255681544571585
vn 0.3255185688503097 -0.005681947754622594 -0.9455185755993164
vn -0.9453745685405304 0.016501574475359743 -0.32556815445715853
vn -0.01745240643728472 -0.9998476951563913 1.22818422099158e-15
vn 0.017452406437283553 0.9998476951563913 2.144118216307335e-15
usemtl 3
f 441/1321/331 442/1322/331 443/1323/331 444/1324/331
f 445/1325/332 441/1326/332 444/1327/332 446/1328/332
f 447/1329/333 445/1330/333 446/1331/333 448/1332/333
f 442/1333/334 447/1334/334 448/1335/334 443/1336/334
f 448/1337/335 446/1338/335 444/1339/335 443/1340/335
f 442/1341/336 441/1342/336 445/1343/336 447/1344/336
o inactive_infinityelytra_left_arm_left_wing_energy_cover5
v -0.5145831143375488 0.7918252239215534 0.4587461017836296
v -0.6327549354051151 0.7938879207309735 0.41805008247648484
v -0.6349364862097755 0.6689069588364245 0.41805008247648484
v -0.5167646651422091 0.6668442620270045 0.4587461017836296
v -0.4942382037844044 0.7914701021868895 0.39965119080867234
v -0.4964197545890648 0.6664891402923406 0.3996511908086724
v -0.6124100248519707 0.7935327989963096 0.35895517150152756
v -0.6145915756566311 0.6685518371017606 0.3589551715015276
vt 0.0625 0.9375
vt 0 0.9375
vt 0 1
vt 0.0625 1
vt 0.03125 0.9375
vt 0 0.9375
vt 0 1
vt 0.03125 1
vt 0.0625 0.9375
vt 0 0.9375
vt 0 1
vt 0.0625 1
vt 0.03125 0.9375
vt 0 0.9375
vt 0 1
vt 0.03125 1
vt 0.0625 0.96875
vt 0 0.96875
vt 0 1
vt 0.0625 1
vt 0.0625 0.96875
vt 0 0.96875
vt 0 1
vt 0.0625 1
vn -0.3255185688503097 0.0056819477546226045 0.9455185755993164
vn 0.9453745685405306 -0.016501574475359715 0.32556815445715825
vn 0.3255185688503097 -0.0056819477546228864 -0.9455185755993163
vn -0.9453745685405306 0.0165015744753604 -0.3255681544571583
vn -0.01745240643728245 -0.9998476951563913 1.3183898417423741e-16
vn 0.017452406437283293 0.9998476951563913 1.7347234759768066e-16
usemtl 3
f 449/1345/337 450/1346/337 451/1347/337 452/1348/337
f 453/1349/338 449/1350/338 452/1351/338 454/1352/338
f 455/1353/339 453/1354/339 454/1355/339 456/1356/339
f 450/1357/340 455/1358/340 456/1359/340 451/1360/340
f 456/1361/341 454/1362/341 452/1363/341 451/1364/341
f 450/1365/342 449/1366/342 453/1367/342 455/1368/342
o inactive_infinityelytra_left_arm_left_wing_energy_cover6
v -0.4907579268826786 0.5520962098800176 0.28142644782081294
v -0.5498438374164618 0.5531275582847277 0.26107843816724063
v -0.5226143783544159 0.4642504546364194 0.1775056135992254
v -0.46352846782063273 0.4632191062317094 0.19785362325279784
v -0.4756006079841773 0.5960325437307166 0.23964003553680524
v -0.4483711489221314 0.5071554400824084 0.15606721096879012
v -0.5346865185179605 0.5970638921354267 0.21929202588323288
v -0.5074570594559146 0.5081867884871184 0.1357192013152177
vt 0.03125 0.9375
vt 0 0.9375
vt 0 1
vt 0.03125 1
vt 0.031250000000000056 0.9375
vt 0 0.9375
vt 0 1
vt 0.031250000000000056 1
vt 0.03125 0.9375
vt 0 0.9375
vt 0 1
vt 0.03125 1
vt 0.031250000000000056 0.9375
vt 0 0.9375
vt 0 1
vt 0.031250000000000056 1
vt 0.03125 0.96875
vt 0 0.96875
vt 0 1
vt 0.03125 1
vt 0.03125 0.96875
vt 0 0.96875
vt 0 1
vt 0.03125 1
vn -0.24251710237602053 -0.7029813416111824 0.6685825965441224
vn 0.9453745685405305 -0.01650157447536007 0.3255681544571581
vn 0.24251710237602123 0.7029813416111826 -0.6685825965441219
vn -0.9453745685405305 0.016501574475360596 -0.3255681544571583
vn 0.21783567249636798 -0.7110168291864658 -0.6685825965441212
vn -0.21783567249636543 0.711016829186466 0.6685825965441219
usemtl 3
f 457/1369/343 458/1370/343 459/1371/343 460/1372/343
f 461/1373/344 457/1374/344 460/1375/344 462/1376/344
f 463/1377/345 461/1378/345 462/1379/345 464/1380/345
f 458/1381/346 463/1382/346 464/1383/346 459/1384/346
f 464/1385/347 462/1386/347 460/1387/347 459/1388/347
f 458/1389/348 457/1390/348 461/1391/348 463/1392/348